<?xml version="1.0" encoding="utf-8"?>
<!-- Generator: Adobe Illustrator 16.0.3, SVG Export Plug-In . SVG Version: 6.00 Build 0)  -->
<!DOCTYPE svg PUBLIC "-//W3C//DTD SVG 1.1//EN" "http://www.w3.org/Graphics/SVG/1.1/DTD/svg11.dtd">
<svg version="1.1" xmlns="http://www.w3.org/2000/svg" xmlns:xlink="http://www.w3.org/1999/xlink" x="0px" y="0px" width="50px"
	 height="50px" viewBox="0 0 50 50" enable-background="new 0 0 50 50" xml:space="preserve">
<g id="Layer_2">
</g>
<g id="Layer_1">
	<g>
		<defs>
			<path id="SVGID_2343_" d="M39.328,11.316c0-0.726,0.586-1.311,1.311-1.311c0.727,0,1.312,0.585,1.312,1.311
				c0,0.725-0.586,1.311-1.312,1.311C39.914,12.627,39.328,12.042,39.328,11.316z M39.328,15.687c0-0.726,0.586-1.311,1.311-1.311
				c0.727,0,1.312,0.585,1.312,1.311c0,0.725-0.586,1.311-1.312,1.311C39.914,16.997,39.328,16.412,39.328,15.687z"/>
		</defs>
		<clipPath id="SVGID_2_">
			<use xlink:href="#SVGID_2343_"  overflow="visible"/>
		</clipPath>
		<g clip-path="url(#SVGID_2_)">
			<defs>
				<rect id="SVGID_2345_" x="-0.16" y="-0.387" width="50.69" height="50.69"/>
			</defs>
			<clipPath id="SVGID_4_">
				<use xlink:href="#SVGID_2345_"  overflow="visible"/>
			</clipPath>
			<rect x="34.26" y="4.936" clip-path="url(#SVGID_4_)" fill="#231F20" width="12.76" height="17.13"/>
		</g>
	</g>
	<g>
		<defs>
			<path id="SVGID_2347_" d="M8.841,39.329h-3.6C2.352,39.329,0,36.978,0,34.087V5.241C0,2.352,2.352,0,5.241,0h31.47
				c2.89,0,5.241,2.352,5.241,5.241v1.922c0,0.724-0.587,1.311-1.312,1.311c-0.722,0-1.311-0.587-1.311-1.311V5.241
				c0-1.443-1.176-2.62-2.619-2.62H5.241c-1.443,0-2.619,1.176-2.619,2.62v28.846c0,1.444,1.176,2.62,2.619,2.62h3.6
				c0.723,0,1.312,0.587,1.312,1.311S9.563,39.329,8.841,39.329"/>
		</defs>
		<clipPath id="SVGID_6_">
			<use xlink:href="#SVGID_2347_"  overflow="visible"/>
		</clipPath>
		<g clip-path="url(#SVGID_6_)">
			<defs>
				<rect id="SVGID_2349_" x="-0.16" y="-0.387" width="50.69" height="50.69"/>
			</defs>
			<clipPath id="SVGID_8_">
				<use xlink:href="#SVGID_2349_"  overflow="visible"/>
			</clipPath>
			<rect x="-5.069" y="-5.069" clip-path="url(#SVGID_8_)" fill="#231F20" width="52.09" height="49.467"/>
		</g>
	</g>
	<g>
		<defs>
			<path id="SVGID_2351_" d="M31.207,28.316c-7.782,0-14.534,4.397-17.917,10.841C16.673,45.602,23.425,50,31.207,50
				c7.783,0,14.535-4.398,17.917-10.843C45.742,32.714,38.99,28.316,31.207,28.316 M31.207,30.938c6.094,0,11.68,3.117,14.895,8.22
				c-3.215,5.104-8.802,8.22-14.895,8.22c-6.092,0-11.679-3.117-14.894-8.22C19.528,34.055,25.115,30.938,31.207,30.938"/>
		</defs>
		<clipPath id="SVGID_10_">
			<use xlink:href="#SVGID_2351_"  overflow="visible"/>
		</clipPath>
		<g clip-path="url(#SVGID_10_)">
			<defs>
				<rect id="SVGID_2353_" x="-0.16" y="-0.387" width="50.69" height="50.69"/>
			</defs>
			<clipPath id="SVGID_12_">
				<use xlink:href="#SVGID_2353_"  overflow="visible"/>
			</clipPath>
			<rect x="8.221" y="23.247" clip-path="url(#SVGID_12_)" fill="#231F20" width="45.973" height="31.822"/>
		</g>
	</g>
	<g>
		<defs>
			<path id="SVGID_2355_" d="M31.207,43.618c2.463,0,4.46-1.996,4.46-4.46c0-2.463-1.997-4.461-4.46-4.461
				c-2.462,0-4.46,1.998-4.46,4.461C26.747,41.623,28.745,43.618,31.207,43.618"/>
		</defs>
		<clipPath id="SVGID_14_">
			<use xlink:href="#SVGID_2355_"  overflow="visible"/>
		</clipPath>
		<g clip-path="url(#SVGID_14_)">
			<defs>
				<rect id="SVGID_2357_" x="-0.16" y="-0.387" width="50.69" height="50.69"/>
			</defs>
			<clipPath id="SVGID_16_">
				<use xlink:href="#SVGID_2357_"  overflow="visible"/>
			</clipPath>
			<rect x="21.678" y="29.628" clip-path="url(#SVGID_16_)" fill="#231F20" width="19.059" height="19.059"/>
		</g>
	</g>
	<g>
		<defs>
			<path id="SVGID_2359_" d="M15.571,30.51c-0.239,0-0.48-0.092-0.663-0.275l-3.491-3.492c-0.367-0.366-0.367-0.96,0-1.326
				c0.365-0.367,0.96-0.367,1.327,0l3.493,3.492c0.365,0.366,0.365,0.96,0,1.327C16.053,30.418,15.813,30.51,15.571,30.51"/>
		</defs>
		<clipPath id="SVGID_18_">
			<use xlink:href="#SVGID_2359_"  overflow="visible"/>
		</clipPath>
		<g clip-path="url(#SVGID_18_)">
			<defs>
				<rect id="SVGID_2361_" x="-0.16" y="-0.387" width="50.69" height="50.69"/>
			</defs>
			<clipPath id="SVGID_20_">
				<use xlink:href="#SVGID_2361_"  overflow="visible"/>
			</clipPath>
			<rect x="6.072" y="20.072" clip-path="url(#SVGID_20_)" fill="#231F20" width="15.508" height="15.507"/>
		</g>
	</g>
	<g>
		<defs>
			<path id="SVGID_2363_" d="M23.005,25.752c-0.407,0-0.781-0.265-0.901-0.674l-1.396-4.75c-0.146-0.497,0.139-1.019,0.635-1.166
				c0.497-0.146,1.021,0.14,1.167,0.637l1.396,4.75c0.146,0.497-0.139,1.019-0.637,1.165C23.181,25.74,23.092,25.752,23.005,25.752"
				/>
		</defs>
		<clipPath id="SVGID_22_">
			<use xlink:href="#SVGID_2363_"  overflow="visible"/>
		</clipPath>
		<g clip-path="url(#SVGID_22_)">
			<defs>
				<rect id="SVGID_2365_" x="-0.16" y="-0.387" width="50.69" height="50.69"/>
			</defs>
			<clipPath id="SVGID_24_">
				<use xlink:href="#SVGID_2365_"  overflow="visible"/>
			</clipPath>
			<rect x="15.6" y="14.056" clip-path="url(#SVGID_24_)" fill="#231F20" width="13.412" height="16.765"/>
		</g>
	</g>
	<g>
		<defs>
			<path id="SVGID_2367_" d="M30.506,24.778c-0.388-0.115-0.671-0.478-0.668-0.904l0.021-4.951c0.002-0.519,0.423-0.937,0.941-0.934
				c0.518,0.001,0.937,0.423,0.934,0.942l-0.02,4.952c-0.002,0.519-0.425,0.938-0.942,0.935
				C30.679,24.817,30.59,24.804,30.506,24.778"/>
		</defs>
		<clipPath id="SVGID_26_">
			<use xlink:href="#SVGID_2367_"  overflow="visible"/>
		</clipPath>
		<g clip-path="url(#SVGID_26_)">
			<defs>
				<rect id="SVGID_2369_" x="-0.16" y="-0.387" width="50.69" height="50.69"/>
			</defs>
			<clipPath id="SVGID_28_">
				<use xlink:href="#SVGID_2369_"  overflow="visible"/>
			</clipPath>
			<rect x="24.769" y="12.92" clip-path="url(#SVGID_28_)" fill="#231F20" width="12.035" height="16.966"/>
		</g>
	</g>
	<g>
		<defs>
			<path id="SVGID_2371_" d="M38.443,26.413c-0.104,0-0.21-0.018-0.312-0.055c-0.488-0.172-0.745-0.708-0.574-1.197l1.648-4.667
				c0.171-0.489,0.707-0.746,1.196-0.572c0.489,0.172,0.747,0.709,0.574,1.197l-1.647,4.667
				C39.192,26.171,38.829,26.413,38.443,26.413"/>
		</defs>
		<clipPath id="SVGID_30_">
			<use xlink:href="#SVGID_2371_"  overflow="visible"/>
		</clipPath>
		<g clip-path="url(#SVGID_30_)">
			<defs>
				<rect id="SVGID_2373_" x="-0.16" y="-0.387" width="50.69" height="50.69"/>
			</defs>
			<clipPath id="SVGID_32_">
				<use xlink:href="#SVGID_2373_"  overflow="visible"/>
			</clipPath>
			<rect x="32.435" y="14.798" clip-path="url(#SVGID_32_)" fill="#231F20" width="13.664" height="16.683"/>
		</g>
	</g>
	<g>
		<defs>
			<path id="SVGID_2375_" d="M46.001,29.43c-0.24,0-0.481-0.092-0.665-0.275c-0.365-0.367-0.365-0.96,0-1.327l3.493-3.493
				c0.366-0.366,0.961-0.366,1.327,0c0.367,0.367,0.367,0.961,0,1.327l-3.491,3.492C46.48,29.338,46.241,29.43,46.001,29.43"/>
		</defs>
		<clipPath id="SVGID_34_">
			<use xlink:href="#SVGID_2375_"  overflow="visible"/>
		</clipPath>
		<g clip-path="url(#SVGID_34_)">
			<defs>
				<rect id="SVGID_2377_" x="-0.16" y="-0.387" width="50.69" height="50.69"/>
			</defs>
			<clipPath id="SVGID_36_">
				<use xlink:href="#SVGID_2377_"  overflow="visible"/>
			</clipPath>
			<rect x="39.992" y="18.992" clip-path="url(#SVGID_36_)" fill="#231F20" width="15.508" height="15.507"/>
		</g>
	</g>
	<g>
		<defs>
			<polyline id="SVGID_2379_" points="12.486,6.28 14.488,10.335 18.961,10.984 15.725,14.14 16.488,18.596 12.486,16.492 
				8.485,18.596 9.249,14.14 6.013,10.984 10.485,10.335 12.486,6.28 			"/>
		</defs>
		<clipPath id="SVGID_38_">
			<use xlink:href="#SVGID_2379_"  overflow="visible"/>
		</clipPath>
		<g clip-path="url(#SVGID_38_)">
			<defs>
				<rect id="SVGID_2381_" x="-0.16" y="-0.387" width="50.69" height="50.69"/>
			</defs>
			<clipPath id="SVGID_40_">
				<use xlink:href="#SVGID_2381_"  overflow="visible"/>
			</clipPath>
			<rect x="0.943" y="1.211" clip-path="url(#SVGID_40_)" fill="#231F20" width="23.087" height="22.454"/>
		</g>
	</g>
</g>
</svg>
