<?xml version="1.0" encoding="utf-8"?>
<!-- Generator: Adobe Illustrator 16.0.3, SVG Export Plug-In . SVG Version: 6.00 Build 0)  -->
<!DOCTYPE svg PUBLIC "-//W3C//DTD SVG 1.1//EN" "http://www.w3.org/Graphics/SVG/1.1/DTD/svg11.dtd">
<svg version="1.1" xmlns="http://www.w3.org/2000/svg" xmlns:xlink="http://www.w3.org/1999/xlink" x="0px" y="0px" width="50px"
	 height="50px" viewBox="0 0 50 50" enable-background="new 0 0 50 50" xml:space="preserve">
<g id="Layer_2">
</g>
<g id="Layer_1">
	<g>
		<defs>
			<path id="SVGID_2311_" d="M20.397,33.045H6.989c-4.038,0-7.322-3.285-7.322-7.321V14.592c0-4.037,3.284-7.322,7.322-7.322h1.155
				L8.008,0l8.301,7.27h17.498c4.037,0,7.321,3.285,7.321,7.322v11.132c0,0.696-0.565,1.262-1.263,1.262
				c-0.696,0-1.262-0.565-1.262-1.262V14.592c0-2.646-2.152-4.798-4.797-4.798H15.359L10.639,5.66l0.075,4.134H6.989
				c-2.646,0-4.798,2.152-4.798,4.798v11.132c0,2.644,2.151,4.796,4.798,4.796h13.408c0.697,0,1.262,0.565,1.262,1.262
				S21.095,33.045,20.397,33.045"/>
		</defs>
		<clipPath id="SVGID_2_">
			<use xlink:href="#SVGID_2311_"  overflow="visible"/>
		</clipPath>
		<g clip-path="url(#SVGID_2_)">
			<defs>
				<rect id="SVGID_2313_" x="-0.772" y="-0.717" width="50.301" height="51.327"/>
			</defs>
			<clipPath id="SVGID_4_">
				<use xlink:href="#SVGID_2313_"  overflow="visible"/>
			</clipPath>
			<rect x="-5.466" y="-5.133" clip-path="url(#SVGID_4_)" fill="#231F20" width="51.727" height="43.311"/>
		</g>
	</g>
	<g>
		<defs>
			<path id="SVGID_2315_" d="M23.503,32.843c-0.335,0-0.652-0.133-0.887-0.359c-0.234-0.243-0.368-0.56-0.368-0.895
				c0-0.326,0.134-0.652,0.36-0.886c0.477-0.46,1.313-0.46,1.781,0c0.233,0.234,0.368,0.56,0.368,0.886
				c0,0.335-0.135,0.652-0.368,0.887C24.155,32.71,23.829,32.843,23.503,32.843"/>
		</defs>
		<clipPath id="SVGID_6_">
			<use xlink:href="#SVGID_2315_"  overflow="visible"/>
		</clipPath>
		<g clip-path="url(#SVGID_6_)">
			<defs>
				<rect id="SVGID_2317_" x="-0.77" y="-0.712" width="50" height="51.021"/>
			</defs>
			<clipPath id="SVGID_8_">
				<use xlink:href="#SVGID_2317_"  overflow="visible"/>
			</clipPath>
			<rect x="17.146" y="25.256" clip-path="url(#SVGID_8_)" fill="#231F20" width="12.713" height="12.689"/>
		</g>
	</g>
	<g>
		<defs>
			<path id="SVGID_2319_" d="M37.964,29.892c-0.576-0.376-0.744-1.155-0.368-1.732c0.386-0.586,1.164-0.744,1.739-0.368
				c0.578,0.377,0.746,1.154,0.369,1.74C39.461,29.9,39.061,30.1,38.649,30.1C38.417,30.1,38.174,30.033,37.964,29.892z
				 M35.154,31.522c-0.31-0.619-0.059-1.372,0.56-1.681c0.618-0.309,1.371-0.059,1.683,0.561c0.316,0.618,0.058,1.371-0.562,1.681
				c-0.176,0.091-0.367,0.134-0.561,0.134C35.814,32.217,35.371,31.964,35.154,31.522z M25.468,31.589
				c0-0.694,0.561-1.255,1.255-1.255c0.687,0,1.255,0.561,1.255,1.255c0,0.694-0.568,1.254-1.255,1.254
				C26.028,32.843,25.468,32.283,25.468,31.589z M28.688,31.589c0-0.694,0.553-1.255,1.246-1.255c0.694,0,1.256,0.561,1.256,1.255
				c0,0.694-0.562,1.254-1.256,1.254C29.241,32.843,28.688,32.283,28.688,31.589z M31.9,31.589c0-0.694,0.561-1.255,1.255-1.255
				c0.693,0,1.255,0.561,1.255,1.255c0,0.694-0.562,1.254-1.255,1.254C32.461,32.843,31.9,32.283,31.9,31.589z"/>
		</defs>
		<clipPath id="SVGID_10_">
			<use xlink:href="#SVGID_2319_"  overflow="visible"/>
		</clipPath>
		<g clip-path="url(#SVGID_10_)">
			<defs>
				<rect id="SVGID_2321_" x="-0.77" y="-0.712" width="50" height="51.021"/>
			</defs>
			<clipPath id="SVGID_12_">
				<use xlink:href="#SVGID_2321_"  overflow="visible"/>
			</clipPath>
			<rect x="20.366" y="22.486" clip-path="url(#SVGID_12_)" fill="#231F20" width="24.642" height="15.459"/>
		</g>
	</g>
	<g>
		<defs>
			<path id="SVGID_2323_" d="M39.62,27.056c-0.326,0-0.652-0.133-0.887-0.368c-0.234-0.235-0.367-0.56-0.367-0.887
				c0-0.326,0.133-0.652,0.367-0.886c0.469-0.47,1.306-0.47,1.773,0c0.233,0.234,0.368,0.56,0.368,0.886
				c0,0.327-0.135,0.652-0.368,0.887C40.272,26.922,39.947,27.056,39.62,27.056"/>
		</defs>
		<clipPath id="SVGID_14_">
			<use xlink:href="#SVGID_2323_"  overflow="visible"/>
		</clipPath>
		<g clip-path="url(#SVGID_14_)">
			<defs>
				<rect id="SVGID_2325_" x="-0.77" y="-0.712" width="50" height="51.021"/>
			</defs>
			<clipPath id="SVGID_16_">
				<use xlink:href="#SVGID_2325_"  overflow="visible"/>
			</clipPath>
			<rect x="33.264" y="19.461" clip-path="url(#SVGID_16_)" fill="#231F20" width="12.713" height="12.696"/>
		</g>
	</g>
	<g>
		<defs>
			<path id="SVGID_2327_" d="M40.367,50l-8.302-7.27H14.566c-4.036,0-7.321-3.284-7.321-7.321V24.277
				c0-0.696,0.566-1.262,1.263-1.262c0.697,0,1.263,0.565,1.263,1.262v11.132c0,2.645,2.152,4.797,4.796,4.797h18.447l4.722,4.134
				l-0.076-4.134h3.726c2.646,0,4.799-2.152,4.799-4.797V24.277c0-2.644-2.152-4.796-4.799-4.796H27.977
				c-0.696,0-1.263-0.565-1.263-1.262s0.566-1.262,1.263-1.262h13.408c4.038,0,7.322,3.284,7.322,7.321v11.132
				c0,4.037-3.284,7.321-7.322,7.321H40.23L40.367,50"/>
		</defs>
		<clipPath id="SVGID_18_">
			<use xlink:href="#SVGID_2327_"  overflow="visible"/>
		</clipPath>
		<g clip-path="url(#SVGID_18_)">
			<defs>
				<rect id="SVGID_2329_" x="-0.772" y="-0.717" width="50.301" height="51.327"/>
			</defs>
			<clipPath id="SVGID_20_">
				<use xlink:href="#SVGID_2329_"  overflow="visible"/>
			</clipPath>
			<rect x="2.113" y="11.823" clip-path="url(#SVGID_20_)" fill="#231F20" width="51.727" height="43.31"/>
		</g>
	</g>
	<g>
		<defs>
			<path id="SVGID_2331_" d="M24.581,19.361c-0.334,0-0.652-0.133-0.886-0.368c-0.234-0.234-0.367-0.553-0.367-0.887
				c0-0.327,0.133-0.652,0.367-0.887c0.469-0.467,1.305-0.467,1.772,0c0.234,0.235,0.369,0.56,0.369,0.887
				c0,0.333-0.135,0.652-0.369,0.887C25.234,19.228,24.908,19.361,24.581,19.361"/>
		</defs>
		<clipPath id="SVGID_22_">
			<use xlink:href="#SVGID_2331_"  overflow="visible"/>
		</clipPath>
		<g clip-path="url(#SVGID_22_)">
			<defs>
				<rect id="SVGID_2333_" x="-0.77" y="-0.712" width="50" height="51.021"/>
			</defs>
			<clipPath id="SVGID_24_">
				<use xlink:href="#SVGID_2333_"  overflow="visible"/>
			</clipPath>
			<rect x="18.226" y="11.767" clip-path="url(#SVGID_24_)" fill="#231F20" width="12.713" height="12.696"/>
		</g>
	</g>
	<g>
		<defs>
			<path id="SVGID_2335_" d="M13.751,18.215c0-0.698,0.564-1.263,1.262-1.263c0.699,0,1.263,0.565,1.263,1.263
				c0,0.699-0.563,1.262-1.263,1.262C14.315,19.478,13.751,18.914,13.751,18.215z M16.99,18.215c0-0.698,0.562-1.263,1.262-1.263
				s1.262,0.565,1.262,1.263c0,0.699-0.562,1.262-1.262,1.262S16.99,18.914,16.99,18.215z M20.229,18.215
				c0-0.698,0.564-1.263,1.263-1.263s1.263,0.565,1.263,1.263c0,0.699-0.564,1.262-1.263,1.262S20.229,18.914,20.229,18.215z
				 M10.746,19.419c-0.311-0.623-0.058-1.388,0.563-1.7c0.624-0.312,1.382-0.05,1.692,0.572c0.311,0.623,0.059,1.379-0.562,1.691
				c-0.177,0.092-0.372,0.134-0.557,0.134C11.411,20.117,10.966,19.856,10.746,19.419z M8.796,22.036
				c-0.582-0.379-0.75-1.161-0.362-1.742c0.378-0.589,1.16-0.749,1.741-0.37c0.59,0.378,0.749,1.161,0.37,1.75
				c-0.243,0.371-0.647,0.573-1.061,0.573C9.248,22.246,9.014,22.179,8.796,22.036z"/>
		</defs>
		<clipPath id="SVGID_26_">
			<use xlink:href="#SVGID_2335_"  overflow="visible"/>
		</clipPath>
		<g clip-path="url(#SVGID_26_)">
			<defs>
				<rect id="SVGID_2337_" x="-0.772" y="-0.717" width="50.301" height="51.327"/>
			</defs>
			<clipPath id="SVGID_28_">
				<use xlink:href="#SVGID_2337_"  overflow="visible"/>
			</clipPath>
			<rect x="3.092" y="11.82" clip-path="url(#SVGID_28_)" fill="#231F20" width="24.795" height="15.559"/>
		</g>
	</g>
	<g>
		<defs>
			<path id="SVGID_2339_" d="M8.508,25.301c-0.328,0-0.654-0.135-0.891-0.362c-0.236-0.245-0.372-0.565-0.372-0.9
				c0-0.329,0.136-0.649,0.372-0.893c0.479-0.47,1.312-0.462,1.783,0c0.235,0.237,0.37,0.564,0.37,0.893
				c0,0.334-0.135,0.665-0.37,0.9C9.173,25.166,8.846,25.301,8.508,25.301"/>
		</defs>
		<clipPath id="SVGID_30_">
			<use xlink:href="#SVGID_2339_"  overflow="visible"/>
		</clipPath>
		<g clip-path="url(#SVGID_30_)">
			<defs>
				<rect id="SVGID_2341_" x="-0.772" y="-0.717" width="50.301" height="51.327"/>
			</defs>
			<clipPath id="SVGID_32_">
				<use xlink:href="#SVGID_2341_"  overflow="visible"/>
			</clipPath>
			<rect x="2.113" y="17.663" clip-path="url(#SVGID_32_)" fill="#231F20" width="12.789" height="12.771"/>
		</g>
	</g>
</g>
</svg>
