<?xml version="1.0" encoding="utf-8"?>
<!-- Generator: Adobe Illustrator 16.0.3, SVG Export Plug-In . SVG Version: 6.00 Build 0)  -->
<!DOCTYPE svg PUBLIC "-//W3C//DTD SVG 1.1//EN" "http://www.w3.org/Graphics/SVG/1.1/DTD/svg11.dtd">
<svg version="1.1" xmlns="http://www.w3.org/2000/svg" xmlns:xlink="http://www.w3.org/1999/xlink" x="0px" y="0px" width="50px"
	 height="50px" viewBox="0 0 50 50" enable-background="new 0 0 50 50" xml:space="preserve">
<g id="Layer_2">
</g>
<g id="Layer_1">
	<g>
		<defs>
			<path id="SVGID_2383_" d="M1.557,49.205c-0.715,0-1.294-0.579-1.294-1.293V1.48c0-0.714,0.579-1.293,1.294-1.293
				c0.713,0,1.293,0.579,1.293,1.293v46.432C2.85,48.626,2.27,49.205,1.557,49.205"/>
		</defs>
		<clipPath id="SVGID_2_">
			<use xlink:href="#SVGID_2383_"  overflow="visible"/>
		</clipPath>
		<g clip-path="url(#SVGID_2_)">
			<defs>
				<rect id="SVGID_2385_" width="47" height="50"/>
			</defs>
			<clipPath id="SVGID_4_">
				<use xlink:href="#SVGID_2385_"  overflow="visible"/>
			</clipPath>
			<rect x="-4.737" y="-4.812" clip-path="url(#SVGID_4_)" fill="#231F20" width="12.587" height="59.018"/>
		</g>
	</g>
	<g>
		<defs>
			<path id="SVGID_2387_" d="M38.24,8.812H8.692c-0.714,0-1.294-0.58-1.294-1.294s0.58-1.293,1.294-1.293H38.24
				c0.714,0,1.293,0.579,1.293,1.293S38.954,8.812,38.24,8.812"/>
		</defs>
		<clipPath id="SVGID_6_">
			<use xlink:href="#SVGID_2387_"  overflow="visible"/>
		</clipPath>
		<g clip-path="url(#SVGID_6_)">
			<defs>
				<rect id="SVGID_2389_" width="47" height="50"/>
			</defs>
			<clipPath id="SVGID_8_">
				<use xlink:href="#SVGID_2389_"  overflow="visible"/>
			</clipPath>
			<rect x="2.398" y="1.226" clip-path="url(#SVGID_8_)" fill="#231F20" width="42.135" height="12.587"/>
		</g>
	</g>
	<g>
		<defs>
			<path id="SVGID_2391_" d="M38.24,43.166H8.692c-0.714,0-1.294-0.579-1.294-1.293c0-0.715,0.58-1.293,1.294-1.293H38.24
				c0.714,0,1.293,0.578,1.293,1.293C39.533,42.587,38.954,43.166,38.24,43.166"/>
		</defs>
		<clipPath id="SVGID_10_">
			<use xlink:href="#SVGID_2391_"  overflow="visible"/>
		</clipPath>
		<g clip-path="url(#SVGID_10_)">
			<defs>
				<rect id="SVGID_2393_" width="47" height="50"/>
			</defs>
			<clipPath id="SVGID_12_">
				<use xlink:href="#SVGID_2393_"  overflow="visible"/>
			</clipPath>
			<rect x="2.398" y="35.58" clip-path="url(#SVGID_12_)" fill="#231F20" width="42.135" height="12.586"/>
		</g>
	</g>
	<g>
		<defs>
			<path id="SVGID_2395_" d="M45.377,49.205c-0.713,0-1.293-0.579-1.293-1.293V1.48c0-0.714,0.58-1.293,1.293-1.293
				c0.715,0,1.294,0.579,1.294,1.293v46.432C46.671,48.626,46.092,49.205,45.377,49.205"/>
		</defs>
		<clipPath id="SVGID_14_">
			<use xlink:href="#SVGID_2395_"  overflow="visible"/>
		</clipPath>
		<g clip-path="url(#SVGID_14_)">
			<defs>
				<rect id="SVGID_2397_" width="47" height="50"/>
			</defs>
			<clipPath id="SVGID_16_">
				<use xlink:href="#SVGID_2397_"  overflow="visible"/>
			</clipPath>
			<rect x="39.084" y="-4.812" clip-path="url(#SVGID_16_)" fill="#231F20" width="12.587" height="59.018"/>
		</g>
	</g>
	<g>
		<defs>
			<path id="SVGID_2399_" d="M40.422,3.157c0-0.707,0.577-1.293,1.293-1.293c0.715,0,1.293,0.586,1.293,1.293
				c0,0.715-0.578,1.293-1.293,1.293C40.999,4.45,40.422,3.872,40.422,3.157z M40.422,7.467c0-0.706,0.577-1.293,1.293-1.293
				c0.715,0,1.293,0.587,1.293,1.293c0,0.716-0.578,1.302-1.293,1.302C40.999,8.769,40.422,8.183,40.422,7.467z M40.422,11.786
				c0-0.716,0.577-1.293,1.293-1.293c0.715,0,1.293,0.577,1.293,1.293c0,0.707-0.578,1.293-1.293,1.293
				C40.999,13.079,40.422,12.493,40.422,11.786z M40.422,16.088c0-0.716,0.577-1.284,1.293-1.284c0.715,0,1.293,0.568,1.293,1.284
				s-0.578,1.293-1.293,1.293C40.999,17.381,40.422,16.804,40.422,16.088z M40.422,20.398c0-0.707,0.577-1.293,1.293-1.293
				c0.715,0,1.293,0.586,1.293,1.293c0,0.716-0.578,1.293-1.293,1.293C40.999,21.691,40.422,21.114,40.422,20.398z M40.422,24.717
				c0-0.715,0.577-1.293,1.293-1.293c0.715,0,1.293,0.578,1.293,1.293c0,0.707-0.578,1.294-1.293,1.294
				C40.999,26.011,40.422,25.424,40.422,24.717z M40.422,29.027c0-0.715,0.577-1.293,1.293-1.293c0.715,0,1.293,0.578,1.293,1.293
				c0,0.707-0.578,1.293-1.293,1.293C40.999,30.32,40.422,29.734,40.422,29.027z M40.422,33.329c0-0.707,0.577-1.293,1.293-1.293
				c0.715,0,1.293,0.586,1.293,1.293c0,0.716-0.578,1.293-1.293,1.293C40.999,34.622,40.422,34.045,40.422,33.329z M40.422,37.64
				c0-0.707,0.577-1.293,1.293-1.293c0.715,0,1.293,0.586,1.293,1.293c0,0.716-0.578,1.302-1.293,1.302
				C40.999,38.941,40.422,38.355,40.422,37.64z M40.422,41.959c0-0.716,0.577-1.294,1.293-1.294c0.715,0,1.293,0.578,1.293,1.294
				c0,0.706-0.578,1.293-1.293,1.293C40.999,43.252,40.422,42.665,40.422,41.959z M40.422,46.261c0-0.716,0.577-1.285,1.293-1.285
				c0.715,0,1.293,0.569,1.293,1.285c0,0.715-0.578,1.293-1.293,1.293C40.999,47.554,40.422,46.976,40.422,46.261z"/>
		</defs>
		<clipPath id="SVGID_18_">
			<use xlink:href="#SVGID_2399_"  overflow="visible"/>
		</clipPath>
		<g clip-path="url(#SVGID_18_)">
			<defs>
				<rect id="SVGID_2401_" width="47" height="50"/>
			</defs>
			<clipPath id="SVGID_20_">
				<use xlink:href="#SVGID_2401_"  overflow="visible"/>
			</clipPath>
			<rect x="35.422" y="-3.136" clip-path="url(#SVGID_20_)" fill="#231F20" width="12.586" height="55.689"/>
		</g>
	</g>
	<g>
		<defs>
			<path id="SVGID_2403_" d="M3.93,3.131c0-0.716,0.578-1.293,1.293-1.293c0.717,0,1.294,0.577,1.294,1.293S5.939,4.424,5.223,4.424
				C4.508,4.424,3.93,3.847,3.93,3.131z M3.93,7.441c0-0.706,0.578-1.293,1.293-1.293c0.717,0,1.294,0.587,1.294,1.293
				c0,0.716-0.577,1.293-1.294,1.293C4.508,8.734,3.93,8.157,3.93,7.441z M3.93,11.752c0-0.716,0.578-1.293,1.293-1.293
				c0.717,0,1.294,0.577,1.294,1.293c0,0.715-0.577,1.293-1.294,1.293C4.508,13.045,3.93,12.467,3.93,11.752z M3.93,16.062
				c0-0.716,0.578-1.294,1.293-1.294c0.717,0,1.294,0.578,1.294,1.294c0,0.715-0.577,1.293-1.294,1.293
				C4.508,17.355,3.93,16.777,3.93,16.062z M3.93,20.372c0-0.715,0.578-1.293,1.293-1.293c0.717,0,1.294,0.578,1.294,1.293
				c0,0.716-0.577,1.293-1.294,1.293C4.508,21.665,3.93,21.088,3.93,20.372z M3.93,24.691c0-0.725,0.578-1.293,1.293-1.293
				c0.717,0,1.294,0.568,1.294,1.293c0,0.707-0.577,1.293-1.294,1.293C4.508,25.984,3.93,25.398,3.93,24.691z M3.93,28.993
				c0-0.716,0.578-1.293,1.293-1.293c0.717,0,1.294,0.577,1.294,1.293s-0.577,1.293-1.294,1.293
				C4.508,30.286,3.93,29.709,3.93,28.993z M3.93,33.304c0-0.716,0.578-1.293,1.293-1.293c0.717,0,1.294,0.577,1.294,1.293
				c0,0.715-0.577,1.293-1.294,1.293C4.508,34.597,3.93,34.019,3.93,33.304z M3.93,37.614c0-0.716,0.578-1.294,1.293-1.294
				c0.717,0,1.294,0.578,1.294,1.294c0,0.715-0.577,1.293-1.294,1.293C4.508,38.907,3.93,38.329,3.93,37.614z M3.93,41.924
				c0-0.715,0.578-1.293,1.293-1.293c0.717,0,1.294,0.578,1.294,1.293c0,0.716-0.577,1.293-1.294,1.293
				C4.508,43.217,3.93,42.64,3.93,41.924z M3.93,46.234c0-0.716,0.578-1.293,1.293-1.293c0.717,0,1.294,0.577,1.294,1.293
				s-0.577,1.293-1.294,1.293C4.508,47.527,3.93,46.95,3.93,46.234z"/>
		</defs>
		<clipPath id="SVGID_22_">
			<use xlink:href="#SVGID_2403_"  overflow="visible"/>
		</clipPath>
		<g clip-path="url(#SVGID_22_)">
			<defs>
				<rect id="SVGID_2405_" width="47" height="50"/>
			</defs>
			<clipPath id="SVGID_24_">
				<use xlink:href="#SVGID_2405_"  overflow="visible"/>
			</clipPath>
			<rect x="-1.07" y="-3.162" clip-path="url(#SVGID_24_)" fill="#231F20" width="12.587" height="55.689"/>
		</g>
	</g>
	<g>
		<defs>
			<path id="SVGID_2407_" d="M18.92,30.942l10.818-6.247L18.92,18.449V30.942z M8.693,15.1H38.24v19.193H8.693V15.1z"/>
		</defs>
		<clipPath id="SVGID_26_">
			<use xlink:href="#SVGID_2407_"  overflow="visible"/>
		</clipPath>
		<g clip-path="url(#SVGID_26_)">
			<defs>
				<rect id="SVGID_2409_" width="47" height="50"/>
			</defs>
			<clipPath id="SVGID_28_">
				<use xlink:href="#SVGID_2409_"  overflow="visible"/>
			</clipPath>
			<rect x="3.693" y="10.1" clip-path="url(#SVGID_28_)" fill="#231F20" width="39.547" height="29.193"/>
		</g>
	</g>
	<rect fill="none" width="47" height="50"/>
</g>
</svg>
