<?xml version="1.0" encoding="utf-8"?>
<!-- Generator: Adobe Illustrator 16.0.3, SVG Export Plug-In . SVG Version: 6.00 Build 0)  -->
<!DOCTYPE svg PUBLIC "-//W3C//DTD SVG 1.1//EN" "http://www.w3.org/Graphics/SVG/1.1/DTD/svg11.dtd">
<svg version="1.1" xmlns="http://www.w3.org/2000/svg" xmlns:xlink="http://www.w3.org/1999/xlink" x="0px" y="0px" width="50px"
	 height="50px" viewBox="0 0 50 50" enable-background="new 0 0 50 50" xml:space="preserve">
<g id="Layer_2">
</g>
<g id="Layer_1">
	<g>
		<g>
			<defs>
				<path id="SVGID_2259_" d="M24.564,49.107C11.019,49.107,0,38.088,0,24.543c0-0.692,0.562-1.254,1.253-1.254
					c0.692,0,1.255,0.562,1.255,1.254c0,12.162,9.894,22.056,22.057,22.056c4.908,0,9.559-1.585,13.446-4.581
					c0.55-0.422,1.337-0.319,1.759,0.229c0.423,0.549,0.321,1.336-0.227,1.759C35.212,47.343,30.032,49.107,24.564,49.107"/>
			</defs>
			<clipPath id="SVGID_2_">
				<use xlink:href="#SVGID_2259_"  overflow="visible"/>
			</clipPath>
			<g clip-path="url(#SVGID_2_)">
				<defs>
					<rect id="SVGID_2261_" x="-0.801" y="-0.995" width="49.978" height="50.997"/>
				</defs>
				<clipPath id="SVGID_4_">
					<use xlink:href="#SVGID_2261_"  overflow="visible"/>
				</clipPath>
				<rect x="-5.1" y="18.189" clip-path="url(#SVGID_4_)" fill="#231F20" width="50.23" height="36.018"/>
			</g>
		</g>
		<g>
			<defs>
				<path id="SVGID_2263_" d="M6.096,11.587c-0.327,0-0.65-0.133-0.887-0.369c-0.232-0.233-0.366-0.56-0.366-0.885
					c0-0.335,0.134-0.652,0.366-0.887c0.47-0.468,1.305-0.468,1.773,0c0.234,0.234,0.368,0.552,0.368,0.887
					c0,0.326-0.134,0.652-0.368,0.885C6.747,11.454,6.423,11.587,6.096,11.587"/>
			</defs>
			<clipPath id="SVGID_6_">
				<use xlink:href="#SVGID_2263_"  overflow="visible"/>
			</clipPath>
			<g clip-path="url(#SVGID_6_)">
				<defs>
					<rect id="SVGID_2265_" x="-0.801" y="-0.995" width="49.978" height="50.997"/>
				</defs>
				<clipPath id="SVGID_8_">
					<use xlink:href="#SVGID_2265_"  overflow="visible"/>
				</clipPath>
				<rect x="-0.257" y="3.996" clip-path="url(#SVGID_8_)" fill="#231F20" width="12.707" height="12.69"/>
			</g>
		</g>
		<g>
			<defs>
				<path id="SVGID_2267_" d="M3.362,14.764c-0.61-0.327-0.845-1.087-0.52-1.706v0.008c0.327-0.618,1.089-0.844,1.699-0.527
					c0.61,0.327,0.843,1.088,0.518,1.698c-0.226,0.425-0.661,0.667-1.104,0.667C3.755,14.905,3.555,14.864,3.362,14.764z
					 M2.016,18.476c-0.651-0.217-1.02-0.927-0.802-1.581c0.218-0.66,0.928-1.019,1.587-0.803c0.653,0.218,1.013,0.93,0.796,1.582
					c-0.168,0.535-0.66,0.868-1.188,0.868C2.276,18.542,2.149,18.517,2.016,18.476z"/>
			</defs>
			<clipPath id="SVGID_10_">
				<use xlink:href="#SVGID_2267_"  overflow="visible"/>
			</clipPath>
			<g clip-path="url(#SVGID_10_)">
				<defs>
					<rect id="SVGID_2269_" x="-0.801" y="-0.995" width="49.978" height="50.997"/>
				</defs>
				<clipPath id="SVGID_12_">
					<use xlink:href="#SVGID_2269_"  overflow="visible"/>
				</clipPath>
				<rect x="-3.948" y="7.297" clip-path="url(#SVGID_12_)" fill="#231F20" width="14.255" height="16.345"/>
			</g>
		</g>
		<g>
			<defs>
				<path id="SVGID_2271_" d="M1.498,22.388c-0.327,0-0.651-0.133-0.887-0.367c-0.232-0.234-0.367-0.552-0.367-0.887
					c0-0.326,0.135-0.652,0.367-0.885c0.469-0.461,1.305-0.468,1.773,0c0.233,0.233,0.367,0.56,0.367,0.885
					c0,0.335-0.134,0.652-0.367,0.887C2.149,22.254,1.832,22.388,1.498,22.388"/>
			</defs>
			<clipPath id="SVGID_14_">
				<use xlink:href="#SVGID_2271_"  overflow="visible"/>
			</clipPath>
			<g clip-path="url(#SVGID_14_)">
				<defs>
					<rect id="SVGID_2273_" x="-0.801" y="-0.995" width="49.978" height="50.997"/>
				</defs>
				<clipPath id="SVGID_16_">
					<use xlink:href="#SVGID_2273_"  overflow="visible"/>
				</clipPath>
				<rect x="-4.855" y="14.8" clip-path="url(#SVGID_16_)" fill="#231F20" width="12.707" height="12.688"/>
			</g>
		</g>
		<g>
			<defs>
				<path id="SVGID_2275_" d="M47.873,25.797c-0.692,0-1.255-0.562-1.255-1.254c0-12.162-9.893-22.055-22.054-22.055
					c-4.91,0-9.562,1.583-13.447,4.58C10.566,7.49,9.781,7.387,9.356,6.839c-0.422-0.548-0.32-1.337,0.229-1.758
					c4.33-3.337,9.509-5.101,14.979-5.101c13.543,0,24.562,11.019,24.562,24.563C49.127,25.235,48.564,25.797,47.873,25.797"/>
			</defs>
			<clipPath id="SVGID_18_">
				<use xlink:href="#SVGID_2275_"  overflow="visible"/>
			</clipPath>
			<g clip-path="url(#SVGID_18_)">
				<defs>
					<rect id="SVGID_2277_" x="-0.801" y="-0.995" width="49.978" height="50.997"/>
				</defs>
				<clipPath id="SVGID_20_">
					<use xlink:href="#SVGID_2277_"  overflow="visible"/>
				</clipPath>
				<rect x="3.996" y="-5.12" clip-path="url(#SVGID_20_)" fill="#231F20" width="50.23" height="36.017"/>
			</g>
		</g>
		<g>
			<defs>
				<path id="SVGID_2279_" d="M43.031,40.012c-0.325,0-0.652-0.133-0.886-0.369c-0.234-0.233-0.368-0.561-0.368-0.885
					c0-0.336,0.134-0.653,0.368-0.887c0.468-0.468,1.304-0.468,1.771,0c0.235,0.233,0.369,0.551,0.369,0.887
					c0,0.325-0.134,0.652-0.369,0.885C43.685,39.878,43.365,40.012,43.031,40.012"/>
			</defs>
			<clipPath id="SVGID_22_">
				<use xlink:href="#SVGID_2279_"  overflow="visible"/>
			</clipPath>
			<g clip-path="url(#SVGID_22_)">
				<defs>
					<rect id="SVGID_2281_" x="-0.801" y="-0.995" width="49.978" height="50.997"/>
				</defs>
				<clipPath id="SVGID_24_">
					<use xlink:href="#SVGID_2281_"  overflow="visible"/>
				</clipPath>
				<rect x="36.678" y="32.421" clip-path="url(#SVGID_24_)" fill="#231F20" width="12.708" height="12.69"/>
			</g>
		</g>
		<g>
			<defs>
				<path id="SVGID_2283_" d="M46.283,33.097c-0.651-0.218-1.012-0.927-0.794-1.587h0.009c0.217-0.661,0.927-1.012,1.579-0.795
					c0.661,0.217,1.012,0.928,0.794,1.588c-0.175,0.527-0.659,0.861-1.186,0.861C46.551,33.164,46.417,33.139,46.283,33.097z
					 M44.553,36.592c-0.609-0.327-0.836-1.086-0.518-1.697h0.008c0.316-0.61,1.078-0.845,1.689-0.518
					c0.609,0.326,0.844,1.086,0.518,1.697c-0.226,0.427-0.66,0.668-1.104,0.668C44.947,36.743,44.746,36.693,44.553,36.592z"/>
			</defs>
			<clipPath id="SVGID_26_">
				<use xlink:href="#SVGID_2283_"  overflow="visible"/>
			</clipPath>
			<g clip-path="url(#SVGID_26_)">
				<defs>
					<rect id="SVGID_2285_" x="-0.801" y="-0.995" width="49.978" height="50.997"/>
				</defs>
				<clipPath id="SVGID_28_">
					<use xlink:href="#SVGID_2285_"  overflow="visible"/>
				</clipPath>
				<rect x="38.792" y="25.551" clip-path="url(#SVGID_28_)" fill="#231F20" width="14.244" height="16.291"/>
			</g>
		</g>
		<g>
			<defs>
				<path id="SVGID_2287_" d="M47.597,29.368c-0.327,0-0.653-0.132-0.887-0.367c-0.234-0.234-0.36-0.552-0.36-0.887
					c0-0.325,0.126-0.651,0.36-0.886c0.469-0.468,1.312-0.468,1.773,0c0.232,0.234,0.374,0.561,0.374,0.886
					c0,0.335-0.142,0.653-0.374,0.887C48.248,29.236,47.932,29.368,47.597,29.368"/>
			</defs>
			<clipPath id="SVGID_30_">
				<use xlink:href="#SVGID_2287_"  overflow="visible"/>
			</clipPath>
			<g clip-path="url(#SVGID_30_)">
				<defs>
					<rect id="SVGID_2289_" x="-0.801" y="-0.995" width="49.978" height="50.997"/>
				</defs>
				<clipPath id="SVGID_32_">
					<use xlink:href="#SVGID_2289_"  overflow="visible"/>
				</clipPath>
				<rect x="41.25" y="21.778" clip-path="url(#SVGID_32_)" fill="#231F20" width="12.707" height="12.689"/>
			</g>
		</g>
		<g>
			<defs>
				<path id="SVGID_2291_" d="M40.227,49.5c-0.692,0-1.254-0.561-1.254-1.254v-5.815h-5.816c-0.691,0-1.253-0.562-1.253-1.254
					c0-0.692,0.562-1.254,1.253-1.254h8.324v8.323C41.48,48.939,40.919,49.5,40.227,49.5"/>
			</defs>
			<clipPath id="SVGID_34_">
				<use xlink:href="#SVGID_2291_"  overflow="visible"/>
			</clipPath>
			<g clip-path="url(#SVGID_34_)">
				<defs>
					<rect id="SVGID_2293_" x="-0.801" y="-0.995" width="49.978" height="50.997"/>
				</defs>
				<clipPath id="SVGID_36_">
					<use xlink:href="#SVGID_2293_"  overflow="visible"/>
				</clipPath>
				<rect x="26.804" y="34.823" clip-path="url(#SVGID_36_)" fill="#231F20" width="19.777" height="19.776"/>
			</g>
		</g>
		<g>
			<defs>
				<path id="SVGID_2295_" d="M15.881,9.077H7.558V0.754C7.558,0.062,8.12-0.5,8.812-0.5c0.692,0,1.255,0.562,1.255,1.254v5.815
					h5.814c0.693,0,1.255,0.562,1.255,1.254C17.136,8.515,16.574,9.077,15.881,9.077"/>
			</defs>
			<clipPath id="SVGID_38_">
				<use xlink:href="#SVGID_2295_"  overflow="visible"/>
			</clipPath>
			<g clip-path="url(#SVGID_38_)">
				<defs>
					<rect id="SVGID_2297_" x="-0.801" y="-0.995" width="49.978" height="50.997"/>
				</defs>
				<clipPath id="SVGID_40_">
					<use xlink:href="#SVGID_2297_"  overflow="visible"/>
				</clipPath>
				<rect x="2.458" y="-5.6" clip-path="url(#SVGID_40_)" fill="#231F20" width="19.777" height="19.776"/>
			</g>
		</g>
		<g>
			<defs>
				<path id="SVGID_2299_" d="M27.099,31.814h9.587v-6.401c0-2.644-2.149-4.794-4.795-4.794c-2.643,0-4.792,2.15-4.792,4.794V31.814
					z M39.194,34.322H24.59v-8.909c0-4.027,3.275-7.302,7.301-7.302c4.028,0,7.304,3.275,7.304,7.302V34.322z"/>
			</defs>
			<clipPath id="SVGID_42_">
				<use xlink:href="#SVGID_2299_"  overflow="visible"/>
			</clipPath>
			<g clip-path="url(#SVGID_42_)">
				<defs>
					<rect id="SVGID_2301_" x="-0.801" y="-0.995" width="49.978" height="50.997"/>
				</defs>
				<clipPath id="SVGID_44_">
					<use xlink:href="#SVGID_2301_"  overflow="visible"/>
				</clipPath>
				<rect x="19.49" y="13.011" clip-path="url(#SVGID_44_)" fill="#231F20" width="24.804" height="26.411"/>
			</g>
		</g>
		<g>
			<defs>
				<path id="SVGID_2303_" d="M31.891,34.322H11.488V18.111h20.402c0.693,0,1.256,0.562,1.256,1.254
					c0,0.692-0.562,1.254-1.256,1.254H13.996v11.195h17.895c0.693,0,1.256,0.562,1.256,1.254S32.584,34.322,31.891,34.322"/>
			</defs>
			<clipPath id="SVGID_46_">
				<use xlink:href="#SVGID_2303_"  overflow="visible"/>
			</clipPath>
			<g clip-path="url(#SVGID_46_)">
				<defs>
					<rect id="SVGID_2305_" x="-0.801" y="-0.995" width="49.978" height="50.997"/>
				</defs>
				<clipPath id="SVGID_48_">
					<use xlink:href="#SVGID_2305_"  overflow="visible"/>
				</clipPath>
				<rect x="6.389" y="13.011" clip-path="url(#SVGID_48_)" fill="#231F20" width="31.857" height="26.411"/>
			</g>
		</g>
		<g>
			<defs>
				<path id="SVGID_2307_" d="M21.419,27.997c-0.692,0-1.254-0.562-1.254-1.254V15.188h-4.048c-0.692,0-1.254-0.561-1.254-1.254
					c0-0.692,0.562-1.254,1.254-1.254h6.556v14.062C22.673,27.435,22.111,27.997,21.419,27.997"/>
			</defs>
			<clipPath id="SVGID_50_">
				<use xlink:href="#SVGID_2307_"  overflow="visible"/>
			</clipPath>
			<g clip-path="url(#SVGID_50_)">
				<defs>
					<rect id="SVGID_2309_" x="-0.801" y="-0.995" width="49.978" height="50.997"/>
				</defs>
				<clipPath id="SVGID_52_">
					<use xlink:href="#SVGID_2309_"  overflow="visible"/>
				</clipPath>
				<rect x="9.763" y="7.581" clip-path="url(#SVGID_52_)" fill="#231F20" width="18.01" height="25.515"/>
			</g>
		</g>
	</g>
</g>
</svg>
