<?xml version="1.0" encoding="utf-8"?>
<!-- Generator: Adobe Illustrator 16.0.3, SVG Export Plug-In . SVG Version: 6.00 Build 0)  -->
<!DOCTYPE svg PUBLIC "-//W3C//DTD SVG 1.1//EN" "http://www.w3.org/Graphics/SVG/1.1/DTD/svg11.dtd">
<svg version="1.1" id="Layer_1" xmlns="http://www.w3.org/2000/svg" xmlns:xlink="http://www.w3.org/1999/xlink" x="0px" y="0px"
	 width="70px" height="50px" viewBox="0 0 70 50" enable-background="new 0 0 70 50" xml:space="preserve">
<g enable-background="new    ">
	<g>
		<g>
			<g>
				<defs>
					<path id="SVGID_1345_" d="M28.013,39.966H7.421C1.977,39.966,0,35.533,0,32.555V7.411c0-3.04,1.428-4.807,2.624-5.754
						C3.955,0.604,5.703,0,7.421,0h35.465c5.444,0,7.421,4.432,7.421,7.411v10.182c0,0.591-0.479,1.071-1.071,1.071
						c-0.591,0-1.07-0.479-1.07-1.071V7.411c0-1.822-1.104-5.269-5.279-5.269H7.421c-1.826,0-5.279,1.101-5.279,5.269v25.144
						c0,1.823,1.104,5.269,5.279,5.269h20.592c0.591,0,1.071,0.479,1.071,1.071S28.604,39.966,28.013,39.966"/>
				</defs>
				<clipPath id="SVGID_2_">
					<use xlink:href="#SVGID_1345_"  overflow="visible"/>
				</clipPath>
				<g clip-path="url(#SVGID_2_)">
					<defs>
						<rect id="SVGID_1347_" x="-0.345" y="-0.459" width="70.715" height="49.799"/>
					</defs>
					<clipPath id="SVGID_4_">
						<use xlink:href="#SVGID_1347_"  overflow="visible"/>
					</clipPath>
					<rect x="-4.979" y="-4.98" clip-path="url(#SVGID_4_)" fill="#231F20" width="60.266" height="49.925"/>
				</g>
			</g>
		</g>
		<g>
			<g>
				<defs>
					<path id="SVGID_1349_" d="M28.453,35.863c-0.039,0.105-0.079,0.311-0.021,0.421c3.35,6.392,11.386,10.856,19.54,10.856
						c8.132,0,16.15-4.442,19.516-10.808c0.039-0.103,0.085-0.315,0.026-0.428c-3.352-6.392-11.386-10.857-19.542-10.857
						C39.836,25.048,31.818,29.493,28.453,35.863z M47.972,49.283c-8.917,0-17.732-4.938-21.438-12.005
						c-0.495-0.946-0.195-1.899-0.058-2.241l0.058-0.126c3.705-7.068,12.521-12.005,21.438-12.005
						c8.919,0,17.734,4.937,21.439,12.005c0.559,1.068,0.106,2.141,0.01,2.345C65.691,44.353,56.882,49.283,47.972,49.283z"/>
				</defs>
				<clipPath id="SVGID_6_">
					<use xlink:href="#SVGID_1349_"  overflow="visible"/>
				</clipPath>
				<g clip-path="url(#SVGID_6_)">
					<defs>
						<rect id="SVGID_1351_" x="-0.345" y="-0.459" width="70.715" height="49.799"/>
					</defs>
					<clipPath id="SVGID_8_">
						<use xlink:href="#SVGID_1351_"  overflow="visible"/>
					</clipPath>
					<rect x="21.28" y="17.927" clip-path="url(#SVGID_8_)" fill="#231F20" width="53.385" height="36.336"/>
				</g>
			</g>
		</g>
		<g>
			<g>
				<defs>
					<path id="SVGID_1353_" d="M30.228,25.526c-0.274,0-0.549-0.104-0.758-0.313l-3.983-3.985c-0.42-0.418-0.42-1.096,0-1.514
						c0.417-0.418,1.096-0.418,1.514,0l3.984,3.984c0.418,0.419,0.418,1.096,0,1.515C30.775,25.422,30.501,25.526,30.228,25.526"/>
				</defs>
				<clipPath id="SVGID_10_">
					<use xlink:href="#SVGID_1353_"  overflow="visible"/>
				</clipPath>
				<g clip-path="url(#SVGID_10_)">
					<defs>
						<rect id="SVGID_1355_" x="-0.345" y="-0.459" width="70.715" height="49.799"/>
					</defs>
					<clipPath id="SVGID_12_">
						<use xlink:href="#SVGID_1355_"  overflow="visible"/>
					</clipPath>
					<rect x="20.191" y="14.42" clip-path="url(#SVGID_12_)" fill="#231F20" width="16.086" height="16.085"/>
				</g>
			</g>
		</g>
		<g>
			<g>
				<defs>
					<path id="SVGID_1357_" d="M41.149,20.098c-0.463,0-0.891-0.303-1.027-0.771l-1.592-5.419c-0.168-0.567,0.157-1.163,0.726-1.329
						c0.565-0.168,1.161,0.158,1.328,0.726l1.593,5.419c0.168,0.568-0.158,1.162-0.726,1.33
						C41.351,20.083,41.249,20.098,41.149,20.098"/>
				</defs>
				<clipPath id="SVGID_14_">
					<use xlink:href="#SVGID_1357_"  overflow="visible"/>
				</clipPath>
				<g clip-path="url(#SVGID_14_)">
					<defs>
						<rect id="SVGID_1359_" x="-0.345" y="-0.459" width="70.715" height="49.799"/>
					</defs>
					<clipPath id="SVGID_16_">
						<use xlink:href="#SVGID_1359_"  overflow="visible"/>
					</clipPath>
					<rect x="33.505" y="7.555" clip-path="url(#SVGID_16_)" fill="#231F20" width="13.696" height="17.522"/>
				</g>
			</g>
		</g>
		<g>
			<g>
				<defs>
					<path id="SVGID_1361_" d="M56.81,20.85c-0.118,0-0.237-0.019-0.356-0.061c-0.557-0.197-0.85-0.808-0.653-1.367l1.879-5.325
						c0.197-0.557,0.809-0.851,1.367-0.652c0.557,0.196,0.851,0.808,0.653,1.366l-1.879,5.324
						C57.665,20.575,57.251,20.85,56.81,20.85"/>
				</defs>
				<clipPath id="SVGID_18_">
					<use xlink:href="#SVGID_1361_"  overflow="visible"/>
				</clipPath>
				<g clip-path="url(#SVGID_18_)">
					<defs>
						<rect id="SVGID_1363_" x="-0.345" y="-0.459" width="70.715" height="49.799"/>
					</defs>
					<clipPath id="SVGID_20_">
						<use xlink:href="#SVGID_1363_"  overflow="visible"/>
					</clipPath>
					<rect x="50.759" y="8.402" clip-path="url(#SVGID_20_)" fill="#231F20" width="13.981" height="17.428"/>
				</g>
			</g>
		</g>
		<g>
			<g>
				<defs>
					<path id="SVGID_1365_" d="M64.944,24.293c-0.274,0-0.549-0.105-0.757-0.313c-0.419-0.419-0.419-1.096,0-1.514l3.984-3.985
						c0.418-0.418,1.096-0.418,1.515,0c0.418,0.418,0.418,1.096,0,1.514l-3.985,3.985C65.492,24.188,65.219,24.293,64.944,24.293"/>
				</defs>
				<clipPath id="SVGID_22_">
					<use xlink:href="#SVGID_1365_"  overflow="visible"/>
				</clipPath>
				<g clip-path="url(#SVGID_22_)">
					<defs>
						<rect id="SVGID_1367_" x="-0.345" y="-0.459" width="70.715" height="49.799"/>
					</defs>
					<clipPath id="SVGID_24_">
						<use xlink:href="#SVGID_1367_"  overflow="visible"/>
					</clipPath>
					<rect x="58.893" y="13.188" clip-path="url(#SVGID_24_)" fill="#231F20" width="16.088" height="16.085"/>
				</g>
			</g>
		</g>
		<g>
			<g>
				<defs>
					<polyline id="SVGID_1369_" points="16.002,7.581 18.639,12.922 24.531,13.779 20.268,17.937 21.273,23.807 16.002,21.034 
						10.731,23.807 11.735,17.937 7.472,13.779 13.365,12.922 16.002,7.581 					"/>
				</defs>
				<clipPath id="SVGID_26_">
					<use xlink:href="#SVGID_1369_"  overflow="visible"/>
				</clipPath>
				<g clip-path="url(#SVGID_26_)">
					<defs>
						<rect id="SVGID_1371_" x="-0.345" y="-0.459" width="70.715" height="49.799"/>
					</defs>
					<clipPath id="SVGID_28_">
						<use xlink:href="#SVGID_1371_"  overflow="visible"/>
					</clipPath>
					<rect x="2.492" y="2.601" clip-path="url(#SVGID_28_)" fill="#231F20" width="27.02" height="26.187"/>
				</g>
			</g>
		</g>
		<g>
			<g>
				<defs>
					<path id="SVGID_1373_" d="M47.972,41.784c3.142,0,5.688-2.547,5.688-5.688c0-3.143-2.547-5.692-5.688-5.692
						s-5.688,2.549-5.688,5.692C42.283,39.237,44.83,41.784,47.972,41.784"/>
				</defs>
				<clipPath id="SVGID_30_">
					<use xlink:href="#SVGID_1373_"  overflow="visible"/>
				</clipPath>
				<g clip-path="url(#SVGID_30_)">
					<defs>
						<rect id="SVGID_1375_" x="-0.345" y="-0.459" width="70.715" height="49.799"/>
					</defs>
					<clipPath id="SVGID_32_">
						<use xlink:href="#SVGID_1375_"  overflow="visible"/>
					</clipPath>
					<rect x="37.304" y="25.424" clip-path="url(#SVGID_32_)" fill="#231F20" width="21.336" height="21.34"/>
				</g>
			</g>
		</g>
	</g>
</g>
</svg>
