<?xml version="1.0" encoding="utf-8"?>
<!-- Generator: Adobe Illustrator 16.0.3, SVG Export Plug-In . SVG Version: 6.00 Build 0)  -->
<!DOCTYPE svg PUBLIC "-//W3C//DTD SVG 1.1//EN" "http://www.w3.org/Graphics/SVG/1.1/DTD/svg11.dtd">
<svg version="1.1" xmlns="http://www.w3.org/2000/svg" xmlns:xlink="http://www.w3.org/1999/xlink" x="0px" y="0px" width="54px"
	 height="54px" viewBox="0 0 54 54" enable-background="new 0 0 54 54" xml:space="preserve">
<g id="Layer_2">
	<circle fill="#424242" cx="27" cy="27" r="27"/>
</g>
<g id="Layer_1">
	<g>
		<g>
			<defs>
				<path id="SVGID_2497_" d="M40.312,17.984h-26.35c-0.9,0-1.63,0.734-1.63,1.641v17.001c0,0.906,0.729,1.641,1.63,1.641h26.35
					c0.899,0,1.629-0.734,1.629-1.641V19.625C41.941,18.719,41.212,17.984,40.312,17.984 M40.312,19.156
					c0.256,0,0.465,0.21,0.465,0.469v17.001c0,0.259-0.209,0.469-0.465,0.469h-26.35c-0.256,0-0.465-0.21-0.465-0.469V19.625
					c0-0.259,0.209-0.469,0.465-0.469H40.312"/>
			</defs>
			<clipPath id="SVGID_2_">
				<use xlink:href="#SVGID_2497_"  overflow="visible"/>
			</clipPath>
			<rect x="7.333" y="12.984" clip-path="url(#SVGID_2_)" fill="#FFFFFF" width="39.608" height="30.282"/>
		</g>
	</g>
	<g>
		<g>
			<defs>
				<path id="SVGID_2499_" d="M27.256,28.825l-14.367-9.348c-0.27-0.176-0.348-0.539-0.173-0.811
					c0.175-0.272,0.535-0.349,0.805-0.174l13.728,8.933l13.516-8.985c0.268-0.178,0.629-0.104,0.807,0.167
					c0.177,0.27,0.104,0.633-0.165,0.812L27.256,28.825"/>
			</defs>
			<clipPath id="SVGID_4_">
				<use xlink:href="#SVGID_2499_"  overflow="visible"/>
			</clipPath>
			<rect x="7.623" y="13.344" clip-path="url(#SVGID_4_)" fill="#FFFFFF" width="39.043" height="20.481"/>
		</g>
	</g>
	<g>
		<path fill="none" stroke="#FFFFFF" stroke-miterlimit="10" d="M13.215,38.094c-0.117,0-0.235-0.036-0.338-0.109
			c-0.262-0.188-0.322-0.555-0.135-0.817l8.953-12.602c0.186-0.264,0.55-0.324,0.811-0.136c0.262,0.188,0.322,0.554,0.135,0.817
			l-8.951,12.602C13.576,38.008,13.396,38.094,13.215,38.094"/>
	</g>
	<g>
		<g>
			<defs>
				<path id="SVGID_2501_" d="M41.09,38.094c-0.181,0-0.359-0.086-0.473-0.245l-8.953-12.602c-0.188-0.264-0.127-0.629,0.135-0.817
					c0.262-0.188,0.625-0.128,0.812,0.136l8.952,12.602c0.187,0.263,0.126,0.629-0.136,0.817
					C41.326,38.058,41.207,38.094,41.09,38.094"/>
			</defs>
			<clipPath id="SVGID_6_">
				<use xlink:href="#SVGID_2501_"  overflow="visible"/>
			</clipPath>
			<rect x="26.556" y="19.32" clip-path="url(#SVGID_6_)" fill="#FFFFFF" width="20.116" height="23.773"/>
		</g>
	</g>
	<g>
		<g>
			<path fill="none" stroke="#FFFFFF" stroke-miterlimit="10" d="M40.312,17.984h-26.35c-0.9,0-1.63,0.734-1.63,1.641v17.001
				c0,0.906,0.729,1.641,1.63,1.641h26.35c0.899,0,1.629-0.734,1.629-1.641V19.625C41.941,18.719,41.212,17.984,40.312,17.984
				 M40.312,19.156c0.256,0,0.465,0.21,0.465,0.469v17.001c0,0.259-0.209,0.469-0.465,0.469h-26.35c-0.256,0-0.465-0.21-0.465-0.469
				V19.625c0-0.259,0.209-0.469,0.465-0.469H40.312"/>
		</g>
		<g>
			<path fill="none" stroke="#FFFFFF" stroke-miterlimit="10" d="M27.256,28.825l-14.367-9.348c-0.27-0.176-0.348-0.539-0.173-0.811
				c0.175-0.272,0.535-0.349,0.805-0.174l13.728,8.933l13.516-8.985c0.268-0.178,0.629-0.104,0.807,0.167
				c0.177,0.27,0.104,0.633-0.165,0.812L27.256,28.825"/>
		</g>
		<g>
			<g>
				<defs>
					<path id="SVGID_2503_" d="M13.215,38.094c-0.117,0-0.235-0.036-0.338-0.109c-0.262-0.188-0.322-0.555-0.135-0.817l8.953-12.602
						c0.186-0.264,0.55-0.324,0.811-0.136c0.262,0.188,0.322,0.554,0.135,0.817l-8.951,12.602
						C13.576,38.008,13.396,38.094,13.215,38.094"/>
				</defs>
				<clipPath id="SVGID_8_">
					<use xlink:href="#SVGID_2503_"  overflow="visible"/>
				</clipPath>
				<rect x="7.633" y="19.32" clip-path="url(#SVGID_8_)" fill="#FFFFFF" width="20.117" height="23.773"/>
			</g>
		</g>
		<g>
			<path fill="none" stroke="#FFFFFF" stroke-miterlimit="10" d="M41.09,38.094c-0.181,0-0.359-0.086-0.473-0.245l-8.953-12.602
				c-0.188-0.264-0.127-0.629,0.135-0.817c0.262-0.188,0.625-0.128,0.812,0.136l8.952,12.602c0.187,0.263,0.126,0.629-0.136,0.817
				C41.326,38.058,41.207,38.094,41.09,38.094"/>
		</g>
	</g>
</g>
</svg>
