<?xml version="1.0" encoding="utf-8"?>
<!-- Generator: Adobe Illustrator 16.0.3, SVG Export Plug-In . SVG Version: 6.00 Build 0)  -->
<!DOCTYPE svg PUBLIC "-//W3C//DTD SVG 1.1//EN" "http://www.w3.org/Graphics/SVG/1.1/DTD/svg11.dtd">
<svg version="1.1" xmlns="http://www.w3.org/2000/svg" xmlns:xlink="http://www.w3.org/1999/xlink" x="0px" y="0px" width="193px"
	 height="32px" viewBox="0 0 193 32" enable-background="new 0 0 193 32" xml:space="preserve">
<g id="Layer_2">
</g>
<g id="Layer_1">
	<g>
		<path fill="#FACE36" d="M131.127,1.204h7.806c4.066,0,6.514,2.217,6.514,5.957c0,1.99-1.057,3.709-2.608,4.531
			c2.28,0.926,3.733,3.01,3.733,5.789c0,4.271-2.707,6.887-7.207,6.887h-8.238V1.204z M134.039,3.983v6.646h4.727
			c2.25,0,3.672-1.156,3.672-3.301c0-2.158-1.422-3.346-3.672-3.346H134.039z M134.039,13.409v8.178h4.895
			c3.077,0,4.628-1.355,4.628-4.105c0-2.705-1.551-4.072-4.628-4.072H134.039z"/>
		<path fill="#FACE36" d="M151.338,0.944h2.78v23.424h-2.78V0.944z"/>
		<path fill="#FACE36" d="M158.389,16.024c0-2.344,0.729-4.363,2.178-6.051c1.488-1.686,3.418-2.553,5.821-2.553
			c2.416,0,4.345,0.867,5.791,2.553c1.49,1.688,2.22,3.707,2.22,6.051c0,2.355-0.729,4.404-2.22,6.092
			c-1.446,1.688-3.375,2.512-5.791,2.512c-2.403,0-4.333-0.824-5.821-2.512C159.118,20.429,158.389,18.38,158.389,16.024z
			 M161.233,16.024c0,1.656,0.457,3.084,1.353,4.301c0.928,1.197,2.189,1.791,3.802,1.791c1.625,0,2.886-0.594,3.783-1.791
			c0.914-1.217,1.384-2.645,1.384-4.301c0-1.658-0.47-3.072-1.384-4.271c-0.897-1.217-2.158-1.809-3.783-1.809
			c-1.612,0-2.874,0.592-3.802,1.809C161.69,12.952,161.233,14.366,161.233,16.024z"/>
		<path fill="#FACE36" d="M180.584,9.015c1.094-1.031,2.479-1.549,4.166-1.549c1.094,0,2.082,0.229,3.01,0.717l2.979-1.689
			L192,8.786l-2.249,1.25c0.562,0.863,0.821,1.854,0.821,3.008c0,1.688-0.563,3.055-1.645,4.076
			c-1.094,0.986-2.49,1.488-4.178,1.488c-1.082,0-2.052-0.197-2.873-0.594c-0.729,0.365-1.095,0.895-1.095,1.611
			c0,0.928,0.638,1.396,1.885,1.396h3.938c3.176,0,5.228,1.658,5.228,4.594c0,3.873-2.947,5.76-7.038,5.76
			c-4.271,0-7.084-2.053-7.084-5.488c0-1.428,0.533-2.584,1.552-3.479c-0.76-0.625-1.125-1.521-1.125-2.646
			c0-1.352,0.668-2.385,2.021-3.07c-0.835-1.002-1.229-2.219-1.229-3.648C178.929,11.358,179.49,10.036,180.584,9.015z
			 M182.804,23.411c-0.334,0-0.729-0.045-1.23-0.076c-0.717,0.564-1.082,1.398-1.082,2.449c0,1.885,1.521,3.145,4.303,3.145
			c2.769,0,4.195-1.217,4.195-3.041c0-1.656-0.926-2.477-2.812-2.477H182.804z M181.648,13.044c0,1.002,0.289,1.795,0.896,2.355
			c1.187,1.096,3.237,1.096,4.425,0c0.594-0.561,0.896-1.354,0.896-2.355c0-0.988-0.303-1.779-0.896-2.342
			c-1.188-1.154-3.238-1.154-4.425,0C181.938,11.265,181.648,12.056,181.648,13.044z"/>
		<g>
			<polygon points="0,0.981 4.687,0.981 8.936,10.093 13.192,0.981 17.879,0.981 11.118,14.442 11.118,24.415 6.761,24.415 
				6.761,14.442 			"/>
			<path d="M20.316,0.782c1.037-1.043,2.774-1.043,3.812,0c1.038,1.031,1.038,2.779,0,3.811c-1.038,1.045-2.775,1.045-3.812,0
				C19.279,3.562,19.279,1.813,20.316,0.782 M20.147,7.544h4.15v16.871h-4.15V7.544z"/>
			<path d="M43.256,17.315H31.646c0.1,2.045,1.569,3.812,3.98,3.812c1.706,0,3.082-0.859,4.087-2.6l3.343,1.232
				c-1.438,3.287-3.98,4.916-7.662,4.916c-5.793,0-8.105-4.686-8.105-8.697s2.312-8.699,8.105-8.699
				c2.674,0,4.849,1.094,6.056,2.812c1.206,1.631,1.806,3.611,1.806,5.518V17.315z M31.746,14.042h7.261
				c-0.469-2.148-1.675-3.225-3.612-3.225C33.414,10.817,32.045,12.261,31.746,14.042"/>
			<rect x="46.534" y="0.72" width="4.156" height="23.695"/>
			<path d="M65.788,9.079V0.72h4.15v23.695h-4.15v-1.736c-0.537,0.969-2.174,1.998-4.087,1.998c-4.956,0-7.699-3.379-7.699-8.697
				s2.743-8.699,7.699-8.699C63.345,7.28,65.019,8.112,65.788,9.079 M58.351,15.979c0,1.613,0.369,2.875,1.107,3.781
				c0.737,0.904,1.674,1.367,2.812,1.367c1.137,0,2.074-0.432,2.781-1.336c0.737-0.902,1.106-2.168,1.106-3.812
				s-0.369-2.873-1.106-3.781c-0.707-0.904-1.644-1.381-2.781-1.381c-1.138,0-2.075,0.477-2.812,1.381
				C58.72,13.106,58.351,14.366,58.351,15.979"/>
			<path d="M88.313,24.415h-4.15V13.169c0-1.568-0.706-2.352-2.074-2.352c-2.144,0-3.649,2.582-3.649,7.406v6.191h-4.156V7.544
				h4.156v2.705c1.306-1.967,2.943-2.969,4.849-2.969c2.181,0,4.019,1.168,4.724,3.475c1.306-2.307,3.013-3.475,5.156-3.475
				c3.112,0,5.018,1.938,5.018,5.18v11.955h-4.149V13.169c0-1.568-0.7-2.352-2.075-2.352c-2.144,0-3.649,2.488-3.649,7.037V24.415z"
				/>
			<path d="M101.364,15.979c0-2.506,0.769-4.582,2.312-6.223c1.538-1.645,3.612-2.477,6.262-2.477c2.644,0,4.718,0.832,6.255,2.477
				c1.543,1.641,2.313,3.717,2.313,6.223s-0.77,4.625-2.313,6.256c-1.537,1.645-3.611,2.441-6.255,2.441
				c-2.65,0-4.724-0.797-6.262-2.441C102.133,20.604,101.364,18.485,101.364,15.979 M105.72,15.979c0,1.443,0.369,2.676,1.137,3.688
				c0.769,0.967,1.775,1.461,3.081,1.461s2.306-0.494,3.081-1.461c0.769-1.012,1.137-2.244,1.137-3.688s-0.368-2.674-1.137-3.643
				c-0.774-1.014-1.774-1.52-3.081-1.52s-2.312,0.506-3.081,1.52C106.088,13.306,105.72,14.536,105.72,15.979"/>
		</g>
	</g>
</g>
</svg>
