<?xml version="1.0" encoding="utf-8"?>
<!-- Generator: Adobe Illustrator 16.0.3, SVG Export Plug-In . SVG Version: 6.00 Build 0)  -->
<!DOCTYPE svg PUBLIC "-//W3C//DTD SVG 1.1//EN" "http://www.w3.org/Graphics/SVG/1.1/DTD/svg11.dtd">
<svg version="1.1" id="Layer_1" xmlns="http://www.w3.org/2000/svg" xmlns:xlink="http://www.w3.org/1999/xlink" x="0px" y="0px"
	 width="32px" height="27px" viewBox="0 0 32 27" enable-background="new 0 0 32 27" xml:space="preserve">
<path fill="#0B84BB" d="M32,3.078c-1.177,0.522-2.443,0.875-3.771,1.033c1.355-0.812,2.396-2.099,2.886-3.632
	c-1.269,0.753-2.673,1.299-4.169,1.593C25.75,0.796,24.043,0,22.155,0c-3.625,0-6.565,2.938-6.565,6.563
	c0,0.516,0.058,1.016,0.169,1.497C10.303,7.786,5.466,5.173,2.228,1.202c-0.565,0.969-0.889,2.097-0.889,3.3
	c0,2.277,1.159,4.287,2.92,5.464C3.184,9.933,2.171,9.637,1.286,9.144c0,0.028,0,0.057,0,0.085c0,3.18,2.263,5.834,5.266,6.436
	c-0.551,0.151-1.131,0.231-1.729,0.231c-0.423,0-0.834-0.042-1.235-0.119c0.836,2.608,3.26,4.507,6.133,4.561
	c-2.247,1.761-5.078,2.811-8.154,2.811c-0.53,0-1.053-0.031-1.566-0.093c2.905,1.863,6.356,2.95,10.064,2.95
	c12.076,0,18.679-10.004,18.679-18.68c0-0.284-0.006-0.567-0.02-0.848C30.007,5.551,31.12,4.395,32,3.078z"/>
</svg>
