<?xml version="1.0" encoding="utf-8"?>
<!-- Generator: Adobe Illustrator 16.0.3, SVG Export Plug-In . SVG Version: 6.00 Build 0)  -->
<!DOCTYPE svg PUBLIC "-//W3C//DTD SVG 1.1//EN" "http://www.w3.org/Graphics/SVG/1.1/DTD/svg11.dtd">
<svg version="1.1" id="Layer_1" xmlns="http://www.w3.org/2000/svg" xmlns:xlink="http://www.w3.org/1999/xlink" x="0px" y="0px"
	 width="110px" height="23px" viewBox="0 0 110 23" enable-background="new 0 0 110 23" xml:space="preserve">
<g>
	<polygon points="0,0.909 4.351,0.909 8.297,9.361 12.244,0.909 16.594,0.909 10.317,13.401 10.317,22.661 6.277,22.661 
		6.277,13.401 	"/>
	<path d="M18.856,0.723c0.963-0.963,2.579-0.963,3.542,0s0.963,2.579,0,3.542c-0.963,0.964-2.58,0.964-3.542,0
		C17.893,3.302,17.893,1.686,18.856,0.723 M18.7,7h3.854v15.661H18.7V7z"/>
	<path d="M40.154,16.073H29.371c0.093,1.896,1.461,3.543,3.698,3.543c1.585,0,2.859-0.808,3.792-2.424l3.107,1.149
		c-1.336,3.045-3.698,4.567-7.116,4.567c-5.376,0-7.52-4.351-7.52-8.078c0-3.729,2.144-8.08,7.52-8.08
		c2.486,0,4.506,1.025,5.625,2.61c1.118,1.522,1.678,3.356,1.678,5.127V16.073z M29.464,13.028h6.743
		c-0.435-1.989-1.554-2.983-3.356-2.983C31.019,10.045,29.744,11.381,29.464,13.028"/>
	<rect x="43.196" y="0.66" width="3.854" height="22.001"/>
	<path d="M61.064,8.429V0.66h3.854v22.001h-3.854v-1.615c-0.497,0.9-2.02,1.863-3.791,1.863c-4.599,0-7.147-3.138-7.147-8.078
		c0-4.941,2.548-8.08,7.147-8.08C58.796,6.751,60.349,7.528,61.064,8.429 M54.166,14.831c0,1.491,0.342,2.672,1.026,3.511
		c0.683,0.839,1.553,1.274,2.61,1.274s1.926-0.404,2.579-1.243c0.684-0.839,1.025-2.02,1.025-3.542c0-1.523-0.342-2.673-1.025-3.513
		c-0.653-0.838-1.522-1.273-2.579-1.273s-1.927,0.436-2.61,1.273C54.507,12.158,54.166,13.339,54.166,14.831"/>
	<path d="M81.974,22.661h-3.854v-10.44c0-1.461-0.652-2.176-1.926-2.176c-1.989,0-3.387,2.393-3.387,6.868v5.748h-3.854V7h3.854
		v2.517c1.212-1.833,2.734-2.766,4.506-2.766c2.02,0,3.729,1.087,4.381,3.232c1.212-2.146,2.797-3.232,4.786-3.232
		c2.89,0,4.661,1.802,4.661,4.816v11.094h-3.854v-10.44c0-1.461-0.653-2.176-1.926-2.176c-1.989,0-3.387,2.3-3.387,6.525V22.661z"/>
	<path d="M94.09,14.831c0-2.331,0.715-4.258,2.144-5.78c1.43-1.522,3.356-2.3,5.811-2.3s4.381,0.777,5.811,2.3S110,12.5,110,14.831
		c0,2.33-0.715,4.288-2.145,5.811s-3.355,2.268-5.811,2.268s-4.381-0.745-5.811-2.268C94.805,19.119,94.09,17.161,94.09,14.831
		 M98.129,14.831c0,1.335,0.342,2.485,1.057,3.418c0.715,0.9,1.647,1.367,2.859,1.367s2.145-0.467,2.859-1.367
		c0.715-0.933,1.056-2.083,1.056-3.418c0-1.337-0.341-2.486-1.056-3.388c-0.714-0.933-1.647-1.398-2.859-1.398
		s-2.144,0.466-2.859,1.398C98.471,12.345,98.129,13.494,98.129,14.831"/>
</g>
</svg>
