<?xml version="1.0" encoding="utf-8"?>
<!-- Generator: Adobe Illustrator 16.0.3, SVG Export Plug-In . SVG Version: 6.00 Build 0)  -->
<!DOCTYPE svg PUBLIC "-//W3C//DTD SVG 1.1//EN" "http://www.w3.org/Graphics/SVG/1.1/DTD/svg11.dtd">
<svg version="1.1" xmlns="http://www.w3.org/2000/svg" xmlns:xlink="http://www.w3.org/1999/xlink" x="0px" y="0px" width="120px"
	 height="25px" viewBox="0 0 120 25" enable-background="new 0 0 120 25" xml:space="preserve">
<g id="Layer_2">
</g>
<g id="Layer_1">
	<g>
		<polygon points="0,0.973 4.687,0.973 8.936,10.086 13.192,0.973 17.879,0.973 11.118,14.434 11.118,24.408 6.761,24.408 
			6.761,14.434 		"/>
		<path d="M20.316,0.773c1.037-1.029,2.774-1.029,3.812,0c1.038,1.045,1.038,2.781,0,3.811c-1.038,1.045-2.775,1.045-3.812,0
			C19.279,3.555,19.279,1.818,20.316,0.773 M20.147,7.535h4.15v16.873h-4.15V7.535z"/>
		<path d="M43.256,17.309H31.646c0.1,2.045,1.569,3.824,3.98,3.824c1.706,0,3.082-0.873,4.087-2.611l3.343,1.23
			c-1.438,3.287-3.98,4.93-7.662,4.93c-5.793,0-8.105-4.686-8.105-8.709c0-4.012,2.312-8.701,8.105-8.701
			c2.674,0,4.849,1.107,6.056,2.814c1.206,1.643,1.806,3.611,1.806,5.518V17.309z M31.746,14.033h7.261
			c-0.469-2.148-1.675-3.211-3.612-3.211C33.414,10.822,32.045,12.254,31.746,14.033"/>
		<rect x="46.534" y="0.711" width="4.156" height="23.697"/>
		<path d="M65.788,9.072V0.711h4.15v23.697h-4.15V22.67c-0.537,0.969-2.174,2.012-4.087,2.012c-4.956,0-7.699-3.379-7.699-8.709
			c0-5.32,2.743-8.701,7.699-8.701C63.345,7.271,65.019,8.104,65.788,9.072 M58.351,15.973c0,1.611,0.369,2.887,1.107,3.779
			c0.737,0.906,1.674,1.381,2.812,1.381c1.137,0,2.074-0.443,2.781-1.336c0.737-0.906,1.106-2.182,1.106-3.824
			c0-1.645-0.369-2.875-1.106-3.781c-0.707-0.906-1.644-1.369-2.781-1.369c-1.138,0-2.075,0.463-2.812,1.369
			C58.72,13.098,58.351,14.371,58.351,15.973"/>
		<path d="M88.313,24.408h-4.15V13.16c0-1.568-0.706-2.338-2.074-2.338c-2.144,0-3.649,2.568-3.649,7.393v6.193h-4.156V7.535h4.156
			v2.719c1.306-1.98,2.943-2.982,4.849-2.982c2.181,0,4.019,1.17,4.724,3.477c1.306-2.307,3.013-3.477,5.156-3.477
			c3.112,0,5.018,1.938,5.018,5.182v11.955h-4.149V13.16c0-1.568-0.7-2.338-2.075-2.338c-2.144,0-3.649,2.475-3.649,7.023V24.408z"
			/>
		<path d="M101.364,15.973c0-2.506,0.769-4.582,2.312-6.225c1.538-1.645,3.612-2.477,6.262-2.477c2.644,0,4.718,0.832,6.255,2.477
			c1.543,1.643,2.313,3.719,2.313,6.225c0,2.518-0.77,4.625-2.313,6.268c-1.537,1.631-3.611,2.441-6.255,2.441
			c-2.65,0-4.724-0.811-6.262-2.441C102.133,20.598,101.364,18.49,101.364,15.973 M105.72,15.973c0,1.443,0.369,2.674,1.137,3.686
			c0.769,0.969,1.775,1.475,3.081,1.475s2.306-0.506,3.081-1.475c0.769-1.012,1.137-2.242,1.137-3.686
			c0-1.432-0.368-2.676-1.137-3.645c-0.774-1.014-1.774-1.506-3.081-1.506s-2.312,0.492-3.081,1.506
			C106.088,13.297,105.72,14.541,105.72,15.973"/>
	</g>
</g>
</svg>
