<?xml version="1.0" encoding="utf-8"?>
<!-- Generator: Adobe Illustrator 16.0.3, SVG Export Plug-In . SVG Version: 6.00 Build 0)  -->
<!DOCTYPE svg PUBLIC "-//W3C//DTD SVG 1.1//EN" "http://www.w3.org/Graphics/SVG/1.1/DTD/svg11.dtd">
<svg version="1.1" xmlns="http://www.w3.org/2000/svg" xmlns:xlink="http://www.w3.org/1999/xlink" x="0px" y="0px" width="322px"
	 height="650px" viewBox="0 0 322 650" enable-background="new 0 0 322 650" xml:space="preserve">
<g id="Layer_2">
</g>
<g id="Layer_1">
	<g enable-background="new    ">
		<g>
			<g>
				<g>
					<g enable-background="new    ">
						<g>
							<g>
								<defs>
									<path id="SVGID_449_" d="M317.793,186.749h-8.608c-2.227,0-4.03-1.804-4.03-4.03v-40.406c0-2.226,1.804-4.03,4.03-4.03
										h8.608c2.225,0,4.028,1.804,4.028,4.03v40.406C321.821,184.945,320.018,186.749,317.793,186.749"/>
								</defs>
								<clipPath id="SVGID_2_">
									<use xlink:href="#SVGID_449_"  overflow="visible"/>
								</clipPath>
								<g clip-path="url(#SVGID_2_)">
									<defs>
										<rect id="SVGID_451_" x="-36.52" y="-37.141" width="405" height="734"/>
									</defs>
									<clipPath id="SVGID_4_">
										<use xlink:href="#SVGID_451_"  overflow="visible"/>
									</clipPath>
									<rect x="300.154" y="133.283" clip-path="url(#SVGID_4_)" fill="#B2B2B2" width="26.667" height="58.466"/>
								</g>
							</g>
							<g>
								<defs>
									<path id="SVGID_453_" d="M12.638,109.068H4.03c-2.225,0-4.03-1.805-4.03-4.03V86.733c0-2.225,1.806-4.03,4.03-4.03h8.607
										c2.225,0,4.03,1.805,4.03,4.03v18.305C16.668,107.263,14.862,109.068,12.638,109.068"/>
								</defs>
								<clipPath id="SVGID_6_">
									<use xlink:href="#SVGID_453_"  overflow="visible"/>
								</clipPath>
								<g clip-path="url(#SVGID_6_)">
									<defs>
										<rect id="SVGID_455_" x="-36.52" y="-37.141" width="405" height="734"/>
									</defs>
									<clipPath id="SVGID_8_">
										<use xlink:href="#SVGID_455_"  overflow="visible"/>
									</clipPath>
									<rect x="-5" y="77.703" clip-path="url(#SVGID_8_)" fill="#B2B2B2" width="26.668" height="36.365"/>
								</g>
							</g>
							<g>
								<defs>
									<path id="SVGID_457_" d="M12.638,186.749H4.03c-2.225,0-4.03-1.804-4.03-4.03v-40.406c0-2.226,1.806-4.03,4.03-4.03h8.607
										c2.225,0,4.03,1.804,4.03,4.03v40.406C16.668,184.945,14.862,186.749,12.638,186.749"/>
								</defs>
								<clipPath id="SVGID_10_">
									<use xlink:href="#SVGID_457_"  overflow="visible"/>
								</clipPath>
								<g clip-path="url(#SVGID_10_)">
									<defs>
										<rect id="SVGID_459_" x="-36.52" y="-37.141" width="405" height="734"/>
									</defs>
									<clipPath id="SVGID_12_">
										<use xlink:href="#SVGID_459_"  overflow="visible"/>
									</clipPath>
									<rect x="-5" y="133.283" clip-path="url(#SVGID_12_)" fill="#B2B2B2" width="26.668" height="58.466"/>
								</g>
							</g>
							<g>
								<defs>
									<path id="SVGID_461_" d="M12.638,246.743H4.03c-2.225,0-4.03-1.804-4.03-4.03v-40.406c0-2.225,1.806-4.03,4.03-4.03h8.607
										c2.225,0,4.03,1.805,4.03,4.03v40.406C16.668,244.939,14.862,246.743,12.638,246.743"/>
								</defs>
								<clipPath id="SVGID_14_">
									<use xlink:href="#SVGID_461_"  overflow="visible"/>
								</clipPath>
								<g clip-path="url(#SVGID_14_)">
									<defs>
										<rect id="SVGID_463_" x="-36.52" y="-37.141" width="405" height="734"/>
									</defs>
									<clipPath id="SVGID_16_">
										<use xlink:href="#SVGID_463_"  overflow="visible"/>
									</clipPath>
									<rect x="-5" y="193.277" clip-path="url(#SVGID_16_)" fill="#B2B2B2" width="26.668" height="58.466"/>
								</g>
							</g>
							<g>
								<defs>
									<path id="SVGID_465_" d="M51.541,647c-24.662,0-44.726-20.064-44.726-44.725V47.725C6.815,23.064,26.879,3,51.541,3
										h218.875c24.661,0,44.725,20.064,44.725,44.725v554.55c0,24.66-20.063,44.725-44.725,44.725H51.541"/>
								</defs>
								<clipPath id="SVGID_18_">
									<use xlink:href="#SVGID_465_"  overflow="visible"/>
								</clipPath>
								<g clip-path="url(#SVGID_18_)">
									<defs>
										<rect id="SVGID_467_" x="-36.52" y="-37.141" width="405" height="734"/>
									</defs>
									<clipPath id="SVGID_20_">
										<use xlink:href="#SVGID_467_"  overflow="visible"/>
									</clipPath>
									<rect x="1.815" y="-2" clip-path="url(#SVGID_20_)" fill="#FFFFFF" width="318.325" height="654"/>
								</g>
							</g>
							<g>
								<defs>
									<path id="SVGID_469_" d="M270.416,0H51.541C25.183,0,3.815,21.367,3.815,47.725v554.55
										C3.815,628.633,25.183,650,51.541,650h218.875c26.357,0,47.725-21.367,47.725-47.725V47.725
										C318.141,21.367,296.773,0,270.416,0 M270.416,6c23.007,0,41.725,18.718,41.725,41.725v554.55
										c0,23.006-18.718,41.725-41.725,41.725H51.541c-23.008,0-41.726-18.719-41.726-41.725V47.725
										C9.815,24.718,28.533,6,51.541,6H270.416"/>
								</defs>
								<clipPath id="SVGID_22_">
									<use xlink:href="#SVGID_469_"  overflow="visible"/>
								</clipPath>
								<g clip-path="url(#SVGID_22_)">
									<defs>
										<rect id="SVGID_471_" x="-36.52" y="-37.141" width="405" height="734"/>
									</defs>
									<clipPath id="SVGID_24_">
										<use xlink:href="#SVGID_471_"  overflow="visible"/>
									</clipPath>
									<rect x="-1.185" y="-5" clip-path="url(#SVGID_24_)" fill="#B2B2B2" width="324.325" height="660"/>
								</g>
							</g>
							<g>
								<defs>
									<path id="SVGID_473_" d="M183.408,35.92h-45.265c-1.696,0-3.07,1.376-3.07,3.07c0,1.694,1.374,3.068,3.07,3.068h45.265
										c1.694,0,3.069-1.374,3.069-3.068C186.478,37.296,185.103,35.92,183.408,35.92"/>
								</defs>
								<clipPath id="SVGID_26_">
									<use xlink:href="#SVGID_473_"  overflow="visible"/>
								</clipPath>
								<g clip-path="url(#SVGID_26_)">
									<defs>
										<rect id="SVGID_475_" x="-36.52" y="-37.141" width="405" height="734"/>
									</defs>
									<clipPath id="SVGID_28_">
										<use xlink:href="#SVGID_475_"  overflow="visible"/>
									</clipPath>
									<rect x="130.073" y="30.92" clip-path="url(#SVGID_28_)" fill="#B2B2B2" width="61.404" height="16.138"/>
								</g>
							</g>
							<g>
								<defs>
									<path id="SVGID_477_" d="M160.313,17.547c-2.094,0-3.789,1.695-3.789,3.788c0,2.092,1.695,3.788,3.789,3.788
										c2.091,0,3.786-1.696,3.786-3.788C164.1,19.242,162.404,17.547,160.313,17.547"/>
								</defs>
								<clipPath id="SVGID_30_">
									<use xlink:href="#SVGID_477_"  overflow="visible"/>
								</clipPath>
								<g clip-path="url(#SVGID_30_)">
									<defs>
										<rect id="SVGID_479_" x="-36.52" y="-37.141" width="405" height="734"/>
									</defs>
									<clipPath id="SVGID_32_">
										<use xlink:href="#SVGID_479_"  overflow="visible"/>
									</clipPath>
									<rect x="151.524" y="12.547" clip-path="url(#SVGID_32_)" fill="#B2B2B2" width="17.575" height="17.576"/>
								</g>
							</g>
							<g>
								<defs>
									<path id="SVGID_481_" d="M110.684,33.532c-3.014,0-5.458,2.444-5.458,5.458c0,3.014,2.444,5.458,5.458,5.458
										c3.015,0,5.457-2.444,5.457-5.458C116.141,35.976,113.698,33.532,110.684,33.532"/>
								</defs>
								<clipPath id="SVGID_34_">
									<use xlink:href="#SVGID_481_"  overflow="visible"/>
								</clipPath>
								<g clip-path="url(#SVGID_34_)">
									<defs>
										<rect id="SVGID_483_" x="-36.52" y="-37.141" width="405" height="734"/>
									</defs>
									<clipPath id="SVGID_36_">
										<use xlink:href="#SVGID_483_"  overflow="visible"/>
									</clipPath>
									<rect x="100.226" y="28.532" clip-path="url(#SVGID_36_)" fill="#B2B2B2" width="20.915" height="20.916"/>
								</g>
							</g>
							<g>
								<path fill="none" stroke="#979797" stroke-miterlimit="10" d="M160.586,581.883c-14.04,0-25.424,11.383-25.424,25.422
									c0,14.041,11.384,25.422,25.424,25.422c14.039,0,25.421-11.381,25.421-25.422
									C186.007,593.266,174.625,581.883,160.586,581.883"/>
							</g>
							<g>
								<defs>
									<rect id="SVGID_485_" x="20.767" y="77.864" width="278.898" height="494.55"/>
								</defs>
								<clipPath id="SVGID_38_">
									<use xlink:href="#SVGID_485_"  overflow="visible"/>
								</clipPath>
								<g clip-path="url(#SVGID_38_)">
									<defs>
										<rect id="SVGID_487_" x="-36.52" y="-37.141" width="405" height="734"/>
									</defs>
									<clipPath id="SVGID_40_">
										<use xlink:href="#SVGID_487_"  overflow="visible"/>
									</clipPath>
								</g>
							</g>
							<g>
								<g>
									<defs>
										<rect id="SVGID_489_" x="-36.52" y="-37.141" width="405" height="734"/>
									</defs>
									<clipPath id="SVGID_42_">
										<use xlink:href="#SVGID_489_"  overflow="visible"/>
									</clipPath>
								</g>
							</g>
						</g>
					</g>
				</g>
			</g>
		</g>
	</g>
	
		<rect x="22" y="79" fill-rule="evenodd" clip-rule="evenodd" fill="#FFFFFF" stroke="#B2B2B2" stroke-width="2" stroke-miterlimit="10" width="278" height="492"/>
	<g enable-background="new    ">
		<g>
			<defs>
				<rect id="SVGID_1503_" x="369.945" y="-472.035" width="120" height="119"/>
			</defs>
			<clipPath id="SVGID_44_">
				<use xlink:href="#SVGID_1503_"  overflow="visible"/>
			</clipPath>
			<g clip-path="url(#SVGID_44_)">
				<defs>
					<rect id="SVGID_1505_" x="-290.055" y="-850.035" width="1440" height="1024"/>
				</defs>
				<clipPath id="SVGID_46_">
					<use xlink:href="#SVGID_1505_"  overflow="visible"/>
				</clipPath>
			</g>
			<g clip-path="url(#SVGID_44_)">
				<defs>
					<rect id="SVGID_1511_" x="-290.055" y="-850.035" width="1440" height="1024"/>
				</defs>
				<clipPath id="SVGID_48_">
					<use xlink:href="#SVGID_1511_"  overflow="visible"/>
				</clipPath>
			</g>
		</g>
	</g>
</g>
</svg>
