<?xml version="1.0" encoding="utf-8"?>
<!-- Generator: Adobe Illustrator 16.0.3, SVG Export Plug-In . SVG Version: 6.00 Build 0)  -->
<!DOCTYPE svg PUBLIC "-//W3C//DTD SVG 1.1//EN" "http://www.w3.org/Graphics/SVG/1.1/DTD/svg11.dtd">
<svg version="1.1" id="Layer_1" xmlns="http://www.w3.org/2000/svg" xmlns:xlink="http://www.w3.org/1999/xlink" x="0px" y="0px"
	 width="216px" height="133px" viewBox="0 0 216 133" enable-background="new 0 0 216 133" xml:space="preserve">
<g>
	<g>
		<defs>
			<path id="SVGID_1_" d="M132.591,89.431H83.078c-1.104,0-2-0.896-2-2c0-1.104,0.896-2,2-2h49.513c1.105,0,1.999,0.896,1.999,2
				C134.59,88.535,133.696,89.431,132.591,89.431"/>
		</defs>
		<clipPath id="SVGID_2_">
			<use xlink:href="#SVGID_1_"  overflow="visible"/>
		</clipPath>
		<rect x="76.08" y="80.434" clip-path="url(#SVGID_2_)" fill="#231F20" width="63.509" height="13.996"/>
	</g>
</g>
<g>
	<g>
		<defs>
			<path id="SVGID_3_" d="M118.246,103.508c-0.527,0-1.054-0.208-1.446-0.619c-0.763-0.799-0.733-2.064,0.065-2.828l13.23-12.632
				l-13.23-12.628c-0.799-0.763-0.828-2.029-0.065-2.827c0.761-0.8,2.027-0.829,2.826-0.066l16.26,15.521l-16.26,15.525
				C119.24,103.325,118.743,103.508,118.246,103.508"/>
		</defs>
		<clipPath id="SVGID_4_">
			<use xlink:href="#SVGID_3_"  overflow="visible"/>
		</clipPath>
		<rect x="111.248" y="66.356" clip-path="url(#SVGID_4_)" fill="#231F20" width="29.637" height="42.151"/>
	</g>
</g>
<g>
	<g>
		<defs>
			<path id="SVGID_5_" d="M36.308,48H24.036c-0.729,0-1.319-0.591-1.319-1.319c0-0.728,0.591-1.319,1.319-1.319h12.272
				c0.729,0,1.319,0.591,1.319,1.319C37.627,47.409,37.037,48,36.308,48"/>
		</defs>
		<clipPath id="SVGID_6_">
			<use xlink:href="#SVGID_5_"  overflow="visible"/>
		</clipPath>
		<rect x="17.718" y="40.363" clip-path="url(#SVGID_6_)" fill="#231F20" width="24.909" height="12.635"/>
	</g>
</g>
<g>
	<g>
		<defs>
			<path id="SVGID_7_" d="M51.351,132.206H8.994c-4.959,0-8.994-4.034-8.994-8.993V65.795c0-1.105,0.896-2,2-2c1.104,0,2,0.895,2,2
				v57.417c0,2.754,2.241,4.994,4.995,4.994h42.357c2.752,0,4.993-2.24,4.993-4.994v-76.4c0-2.754-2.241-4.995-4.993-4.995H8.994
				c-2.754,0-4.995,2.241-4.995,4.995v6.782c0,1.103-0.895,2-2,2c-1.104,0-2-0.896-2-2v-6.782c0-4.958,4.034-8.994,8.994-8.994
				h42.357c4.958,0,8.993,4.035,8.993,8.994v76.4C60.344,128.172,56.31,132.206,51.351,132.206"/>
		</defs>
		<clipPath id="SVGID_8_">
			<use xlink:href="#SVGID_7_"  overflow="visible"/>
		</clipPath>
		<rect x="-4.999" y="32.821" clip-path="url(#SVGID_8_)" fill="#231F20" width="70.341" height="104.384"/>
	</g>
</g>
<g>
	<g>
		<defs>
			<path id="SVGID_9_" d="M8.928,113.821h42.489V53.13H8.928V113.821z M12.927,57.129h34.491v52.693H12.927V57.129z"/>
		</defs>
		<clipPath id="SVGID_10_">
			<use xlink:href="#SVGID_9_"  overflow="visible"/>
		</clipPath>
		<rect x="3.929" y="48.131" clip-path="url(#SVGID_10_)" fill="#231F20" width="52.486" height="70.689"/>
	</g>
</g>
<g>
	<g>
		<defs>
			<path id="SVGID_11_" d="M34.57,121.686c0,2.43-1.969,4.399-4.399,4.399c-2.429,0-4.398-1.97-4.398-4.399
				c0-2.428,1.969-4.397,4.398-4.397C32.601,117.288,34.57,119.258,34.57,121.686"/>
		</defs>
		<clipPath id="SVGID_12_">
			<use xlink:href="#SVGID_11_"  overflow="visible"/>
		</clipPath>
		<rect x="20.775" y="112.289" clip-path="url(#SVGID_12_)" fill="#231F20" width="18.794" height="18.794"/>
	</g>
</g>
<g>
	<g>
		<defs>
			<path id="SVGID_13_" d="M25.436,76.648c0,1.376-1.115,2.491-2.492,2.491c-1.375,0-2.492-1.115-2.492-2.491
				c0-1.376,1.116-2.492,2.492-2.492C24.321,74.157,25.436,75.272,25.436,76.648"/>
		</defs>
		<clipPath id="SVGID_14_">
			<use xlink:href="#SVGID_13_"  overflow="visible"/>
		</clipPath>
		<rect x="15.454" y="69.158" clip-path="url(#SVGID_14_)" fill="#231F20" width="14.98" height="14.98"/>
	</g>
</g>
<g>
	<g>
		<defs>
			<path id="SVGID_15_" d="M39.891,76.648c0,1.376-1.116,2.491-2.492,2.491c-1.376,0-2.491-1.115-2.491-2.491
				c0-1.376,1.115-2.492,2.491-2.492C38.775,74.157,39.891,75.272,39.891,76.648"/>
		</defs>
		<clipPath id="SVGID_16_">
			<use xlink:href="#SVGID_15_"  overflow="visible"/>
		</clipPath>
		<rect x="29.909" y="69.158" clip-path="url(#SVGID_16_)" fill="#231F20" width="14.98" height="14.98"/>
	</g>
</g>
<g>
	<g>
		<defs>
			<path id="SVGID_17_" d="M32.71,0l-1.073,17.539h-4.138L26.426,0H32.71z M29.566,20.679c1.762,0,3.181,1.455,3.181,3.216
				c0,1.761-1.419,3.139-3.181,3.139c-1.758,0-3.177-1.378-3.177-3.139C26.389,22.133,27.808,20.679,29.566,20.679z"/>
		</defs>
		<clipPath id="SVGID_18_">
			<use xlink:href="#SVGID_17_"  overflow="visible"/>
		</clipPath>
		<rect x="21.391" y="-4.999" clip-path="url(#SVGID_18_)" width="16.355" height="37.031"/>
	</g>
</g>
<g>
	<g>
		<defs>
			<path id="SVGID_19_" d="M39.17,94.527H21.175c-1.105,0-2-0.894-2-2c0-1.103,0.895-2,2-2H39.17c1.104,0,2,0.896,2,2
				C41.169,93.633,40.274,94.527,39.17,94.527"/>
		</defs>
		<clipPath id="SVGID_20_">
			<use xlink:href="#SVGID_19_"  overflow="visible"/>
		</clipPath>
		<rect x="14.177" y="85.53" clip-path="url(#SVGID_20_)" fill="#231F20" width="31.992" height="13.996"/>
	</g>
</g>
<g>
	<g>
		<defs>
			<path id="SVGID_21_" d="M185.828,26.895c-1.104,0-2-0.896-2-2V2c0-1.104,0.896-2,2-2c1.105,0,1.999,0.896,1.999,2v22.896
				C187.827,25.999,186.934,26.895,185.828,26.895"/>
		</defs>
		<clipPath id="SVGID_22_">
			<use xlink:href="#SVGID_21_"  overflow="visible"/>
		</clipPath>
		<rect x="178.83" y="-4.999" clip-path="url(#SVGID_22_)" fill="#231F20" width="13.996" height="36.892"/>
	</g>
</g>
<g>
	<g>
		<defs>
			<path id="SVGID_23_" d="M171.646,27.034c-0.513,0-1.024-0.195-1.414-0.586L157.591,13.81c-0.779-0.78-0.779-2.046,0-2.828
				c0.781-0.78,2.048-0.78,2.828,0l12.64,12.639c0.78,0.781,0.78,2.047,0,2.827C172.667,26.839,172.156,27.034,171.646,27.034"/>
		</defs>
		<clipPath id="SVGID_24_">
			<use xlink:href="#SVGID_23_"  overflow="visible"/>
		</clipPath>
		<rect x="152.008" y="5.398" clip-path="url(#SVGID_24_)" fill="#231F20" width="26.636" height="26.635"/>
	</g>
</g>
<g>
	<g>
		<defs>
			<path id="SVGID_25_" d="M200.014,27.034c-0.513,0-1.023-0.195-1.413-0.586c-0.782-0.78-0.782-2.046,0-2.827l12.637-12.639
				c0.781-0.78,2.047-0.78,2.828,0c0.781,0.781,0.781,2.048,0,2.828l-12.638,12.639C201.036,26.839,200.524,27.034,200.014,27.034"
				/>
		</defs>
		<clipPath id="SVGID_26_">
			<use xlink:href="#SVGID_25_"  overflow="visible"/>
		</clipPath>
		<rect x="193.015" y="5.398" clip-path="url(#SVGID_26_)" fill="#231F20" width="26.636" height="26.635"/>
	</g>
</g>
<g>
	<g>
		<defs>
			<path id="SVGID_27_" d="M181.093,76.648c0,1.376-1.115,2.491-2.491,2.491s-2.491-1.115-2.491-2.491
				c0-1.376,1.115-2.492,2.491-2.492S181.093,75.272,181.093,76.648"/>
		</defs>
		<clipPath id="SVGID_28_">
			<use xlink:href="#SVGID_27_"  overflow="visible"/>
		</clipPath>
		<rect x="171.111" y="69.158" clip-path="url(#SVGID_28_)" fill="#231F20" width="14.98" height="14.98"/>
	</g>
</g>
<g>
	<g>
		<defs>
			<path id="SVGID_29_" d="M195.547,76.648c0,1.376-1.114,2.491-2.491,2.491c-1.376,0-2.491-1.115-2.491-2.491
				c0-1.376,1.115-2.492,2.491-2.492C194.433,74.157,195.547,75.272,195.547,76.648"/>
		</defs>
		<clipPath id="SVGID_30_">
			<use xlink:href="#SVGID_29_"  overflow="visible"/>
		</clipPath>
		<rect x="185.565" y="69.158" clip-path="url(#SVGID_30_)" fill="#231F20" width="14.98" height="14.98"/>
	</g>
</g>
<g>
	<g>
		<defs>
			<path id="SVGID_31_" d="M191.965,48h-12.271c-0.729,0-1.32-0.591-1.32-1.319c0-0.728,0.591-1.319,1.32-1.319h12.271
				c0.728,0,1.319,0.591,1.319,1.319C193.284,47.409,192.692,48,191.965,48"/>
		</defs>
		<clipPath id="SVGID_32_">
			<use xlink:href="#SVGID_31_"  overflow="visible"/>
		</clipPath>
		<rect x="173.374" y="40.363" clip-path="url(#SVGID_32_)" fill="#231F20" width="24.909" height="12.635"/>
	</g>
</g>
<g>
	<g>
		<defs>
			<path id="SVGID_33_" d="M207.007,132.206h-42.355c-4.96,0-8.994-4.034-8.994-8.993V65.795c0-1.105,0.896-2,1.999-2
				c1.104,0,2,0.895,2,2v57.417c0,2.754,2.24,4.994,4.995,4.994h42.355c2.754,0,4.995-2.24,4.995-4.994v-76.4
				c0-2.754-2.241-4.995-4.995-4.995h-42.355c-2.755,0-4.995,2.241-4.995,4.995v6.782c0,1.103-0.896,2-2,2
				c-1.104,0-1.999-0.896-1.999-2v-6.782c0-4.958,4.034-8.994,8.994-8.994h42.355c4.959,0,8.993,4.035,8.993,8.994v76.4
				C216,128.172,211.966,132.206,207.007,132.206"/>
		</defs>
		<clipPath id="SVGID_34_">
			<use xlink:href="#SVGID_33_"  overflow="visible"/>
		</clipPath>
		<rect x="150.658" y="32.821" clip-path="url(#SVGID_34_)" fill="#231F20" width="70.341" height="104.384"/>
	</g>
</g>
<g>
	<g>
		<defs>
			<path id="SVGID_35_" d="M164.585,113.821h42.488V53.13h-42.488V113.821z M168.584,57.129h34.49v52.693h-34.49V57.129z"/>
		</defs>
		<clipPath id="SVGID_36_">
			<use xlink:href="#SVGID_35_"  overflow="visible"/>
		</clipPath>
		<rect x="159.586" y="48.131" clip-path="url(#SVGID_36_)" fill="#231F20" width="52.486" height="70.689"/>
	</g>
</g>
<g>
	<g>
		<defs>
			<path id="SVGID_37_" d="M190.228,121.686c0,2.43-1.97,4.399-4.399,4.399c-2.429,0-4.397-1.97-4.397-4.399
				c0-2.428,1.969-4.397,4.397-4.397C188.258,117.288,190.228,119.258,190.228,121.686"/>
		</defs>
		<clipPath id="SVGID_38_">
			<use xlink:href="#SVGID_37_"  overflow="visible"/>
		</clipPath>
		<rect x="176.432" y="112.289" clip-path="url(#SVGID_38_)" fill="#231F20" width="18.794" height="18.794"/>
	</g>
</g>
<g>
	<g>
		<defs>
			<path id="SVGID_39_" d="M185.828,97.651c-6.752,0-12.246-5.494-12.246-12.246c0-1.104,0.896-2,2-2c1.104,0,1.999,0.896,1.999,2
				c0,4.548,3.699,8.247,8.247,8.247c4.547,0,8.248-3.699,8.248-8.247c0-1.104,0.896-2,1.999-2c1.104,0,2,0.896,2,2
				C198.075,92.158,192.581,97.651,185.828,97.651"/>
		</defs>
		<clipPath id="SVGID_40_">
			<use xlink:href="#SVGID_39_"  overflow="visible"/>
		</clipPath>
		<rect x="168.584" y="78.408" clip-path="url(#SVGID_40_)" fill="#231F20" width="34.489" height="24.243"/>
	</g>
</g>
</svg>
