<?xml version="1.0" encoding="utf-8"?>
<!-- Generator: Adobe Illustrator 16.0.3, SVG Export Plug-In . SVG Version: 6.00 Build 0)  -->
<!DOCTYPE svg PUBLIC "-//W3C//DTD SVG 1.1//EN" "http://www.w3.org/Graphics/SVG/1.1/DTD/svg11.dtd">
<svg version="1.1" id="Layer_1" xmlns="http://www.w3.org/2000/svg" xmlns:xlink="http://www.w3.org/1999/xlink" x="0px" y="0px"
	 width="34px" height="34px" viewBox="0 0 34 34" enable-background="new 0 0 34 34" xml:space="preserve">
<g enable-background="new    ">
	<g>
		<g>
			<defs>
				<rect id="SVGID_1377_" x="-348" y="-1875" width="1440" height="3286"/>
			</defs>
			<clipPath id="SVGID_2_">
				<use xlink:href="#SVGID_1377_"  overflow="visible"/>
			</clipPath>
		</g>
		<g>
			<defs>
				<rect id="SVGID_1379_" x="-348" y="-1875" width="1440" height="3286"/>
			</defs>
			<clipPath id="SVGID_4_">
				<use xlink:href="#SVGID_1379_"  overflow="visible"/>
			</clipPath>
		</g>
		<g>
			<defs>
				<rect id="SVGID_1381_" x="-348" y="-1875" width="1440" height="3286"/>
			</defs>
			<clipPath id="SVGID_6_">
				<use xlink:href="#SVGID_1381_"  overflow="visible"/>
			</clipPath>
		</g>
	</g>
</g>
<g>
	<defs>
		<path id="SVGID_1383_" d="M24.165,19.623c-0.251,0.252-0.649,0.316-0.975,0.131c-0.388-0.223-0.523-0.718-0.301-1.105
			c2.541-4.442,1.785-10.076-1.839-13.7c-4.439-4.44-11.663-4.44-16.103,0C0.509,9.388,0.509,16.612,4.947,21.051
			c3.624,3.623,9.257,4.38,13.698,1.84c0.39-0.222,0.884-0.087,1.106,0.301c0.222,0.388,0.087,0.883-0.302,1.104
			c-5.074,2.902-11.51,2.038-15.647-2.1c-5.07-5.07-5.07-13.322,0-18.393c5.071-5.071,13.322-5.071,18.394,0
			c4.14,4.138,5.002,10.573,2.1,15.648C24.26,19.517,24.216,19.573,24.165,19.623"/>
	</defs>
	<clipPath id="SVGID_8_">
		<use xlink:href="#SVGID_1383_"  overflow="visible"/>
	</clipPath>
	<g clip-path="url(#SVGID_8_)">
		<defs>
			<rect id="SVGID_1385_" x="-0.34" y="-0.356" width="34.418" height="34.418"/>
		</defs>
		<clipPath id="SVGID_10_">
			<use xlink:href="#SVGID_1385_"  overflow="visible"/>
		</clipPath>
		<rect x="-4.917" y="-4.917" clip-path="url(#SVGID_10_)" fill="#231F20" width="35.837" height="35.837"/>
	</g>
</g>
<g>
	<defs>
		<path id="SVGID_1387_" d="M8.737,8.737c-2.352,2.351-2.352,6.176,0,8.527c2.351,2.351,6.175,2.351,8.525,0
			c2.352-2.351,2.352-6.176,0-8.527C14.912,6.386,11.088,6.386,8.737,8.737z M18.408,18.409c-2.981,2.982-7.835,2.982-10.817,0
			c-2.982-2.982-2.981-7.835,0-10.818c2.982-2.982,7.836-2.982,10.817,0C21.391,10.574,21.391,15.427,18.408,18.409z"/>
	</defs>
	<clipPath id="SVGID_12_">
		<use xlink:href="#SVGID_1387_"  overflow="visible"/>
	</clipPath>
	<g clip-path="url(#SVGID_12_)">
		<defs>
			<rect id="SVGID_1389_" x="-0.34" y="-0.356" width="34.418" height="34.418"/>
		</defs>
		<clipPath id="SVGID_14_">
			<use xlink:href="#SVGID_1389_"  overflow="visible"/>
		</clipPath>
		<rect x="0.438" y="0.438" clip-path="url(#SVGID_14_)" fill="#231F20" width="25.124" height="25.125"/>
	</g>
</g>
<g>
	<defs>
		<path id="SVGID_1391_" d="M32.823,32.824c-1.568,1.568-4.119,1.568-5.688,0l-8.662-8.661c-0.316-0.316-0.316-0.83,0-1.146
			c0.315-0.316,0.829-0.316,1.146,0l8.662,8.662c0.936,0.937,2.46,0.937,3.397,0c0.936-0.937,0.936-2.461,0-3.397l-5.992-5.992
			c-0.316-0.315-0.316-0.829,0-1.145s0.83-0.316,1.145,0l5.992,5.993C34.392,28.704,34.392,31.255,32.823,32.824"/>
	</defs>
	<clipPath id="SVGID_16_">
		<use xlink:href="#SVGID_1391_"  overflow="visible"/>
	</clipPath>
	<g clip-path="url(#SVGID_16_)">
		<defs>
			<rect id="SVGID_1393_" x="-0.34" y="-0.356" width="34.418" height="34.418"/>
		</defs>
		<clipPath id="SVGID_18_">
			<use xlink:href="#SVGID_1393_"  overflow="visible"/>
		</clipPath>
		<rect x="13.319" y="15.99" clip-path="url(#SVGID_18_)" fill="#231F20" width="25.597" height="22.927"/>
	</g>
</g>
</svg>
