<?xml version="1.0" encoding="utf-8"?>
<!-- Generator: Adobe Illustrator 16.0.3, SVG Export Plug-In . SVG Version: 6.00 Build 0)  -->
<!DOCTYPE svg PUBLIC "-//W3C//DTD SVG 1.1//EN" "http://www.w3.org/Graphics/SVG/1.1/DTD/svg11.dtd">
<svg version="1.1" id="Layer_1" xmlns="http://www.w3.org/2000/svg" xmlns:xlink="http://www.w3.org/1999/xlink" x="0px" y="0px"
	 width="200px" height="42px" viewBox="0 0 200 42" enable-background="new 0 0 200 42" xml:space="preserve">
<polygon fill="#262626" points="0,1.652 7.91,1.652 15.085,17.021 22.261,1.652 30.17,1.652 18.758,24.365 18.758,41.202 
	11.413,41.202 11.413,24.365 "/>
<g>
	<path fill="#262626" d="M34.284,1.313c1.751-1.751,4.689-1.751,6.441,0c1.751,1.752,1.751,4.689,0,6.441
		c-1.752,1.751-4.69,1.751-6.441,0C32.532,6.003,32.532,3.065,34.284,1.313 M34.001,12.727h7.006v28.476h-7.006V12.727z"/>
	<path fill="#262626" d="M73.007,29.225H53.402c0.169,3.446,2.656,6.44,6.724,6.44c2.881,0,5.198-1.469,6.893-4.406l5.65,2.09
		c-2.429,5.537-6.723,8.306-12.938,8.306c-9.774,0-13.673-7.91-13.673-14.689c0-6.78,3.899-14.69,13.673-14.69
		c4.52,0,8.192,1.864,10.226,4.746c2.034,2.769,3.051,6.102,3.051,9.322V29.225z M53.572,23.688h12.26
		c-0.791-3.616-2.825-5.424-6.102-5.424C56.397,18.264,54.08,20.693,53.572,23.688"/>
	<rect x="78.539" y="1.201" fill="#262626" width="7.006" height="40.001"/>
	<path fill="#262626" d="M111.025,15.325V1.2h7.006v40.002h-7.006v-2.938c-0.903,1.638-3.672,3.39-6.893,3.39
		c-8.362,0-12.995-5.706-12.995-14.689s4.633-14.69,12.995-14.69C106.901,12.274,109.726,13.688,111.025,15.325 M98.483,26.965
		c0,2.712,0.621,4.858,1.865,6.384c1.243,1.525,2.825,2.316,4.746,2.316s3.503-0.734,4.689-2.26c1.243-1.525,1.864-3.672,1.864-6.44
		s-0.622-4.859-1.864-6.385c-1.187-1.525-2.769-2.316-4.689-2.316s-3.503,0.791-4.746,2.316
		C99.104,22.105,98.483,24.253,98.483,26.965"/>
	<path fill="#262626" d="M149.043,41.202h-7.006V22.219c0-2.655-1.187-3.955-3.503-3.955c-3.616,0-6.158,4.351-6.158,12.486v10.452
		h-7.006V12.727h7.006v4.576c2.203-3.333,4.972-5.028,8.192-5.028c3.672,0,6.78,1.978,7.966,5.876
		c2.204-3.898,5.085-5.876,8.701-5.876c5.254,0,8.475,3.277,8.475,8.758v20.17h-7.006V22.219c0-2.655-1.187-3.955-3.503-3.955
		c-3.616,0-6.159,4.181-6.159,11.864V41.202z"/>
	<path fill="#262626" d="M171.072,26.965c0-4.237,1.3-7.741,3.898-10.509c2.6-2.769,6.103-4.182,10.565-4.182
		c4.464,0,7.966,1.413,10.565,4.182c2.599,2.768,3.898,6.271,3.898,10.509s-1.299,7.797-3.898,10.564
		c-2.599,2.769-6.102,4.125-10.565,4.125c-4.463,0-7.966-1.356-10.565-4.125C172.372,34.762,171.072,31.202,171.072,26.965
		 M178.417,26.965c0,2.429,0.621,4.52,1.921,6.215c1.299,1.638,2.994,2.485,5.198,2.485s3.898-0.848,5.198-2.485
		c1.3-1.695,1.921-3.786,1.921-6.215c0-2.43-0.621-4.521-1.921-6.159c-1.299-1.694-2.994-2.542-5.198-2.542
		s-3.898,0.848-5.198,2.542C179.039,22.444,178.417,24.535,178.417,26.965"/>
</g>
</svg>
